<svg width="20" height="21" viewBox="0 0 20 21" fill="none" xmlns="http://www.w3.org/2000/svg">
<path d="M3.84583 1.54C3.84583 1.26628 3.83852 1.01774 3.84745 0.769206C3.8637 0.324111 4.20158 -0.00402379 4.62555 3.72841e-05C5.05197 0.00409836 5.37523 0.337919 5.38335 0.786262C5.3866 0.961701 5.38335 1.13795 5.38416 1.31339C5.38416 1.37999 5.38416 1.44578 5.38416 1.52619H14.6182C14.6182 1.28821 14.6166 1.05429 14.6182 0.819563C14.6223 0.341168 14.9407 3.72841e-05 15.3834 3.72841e-05C15.8219 3.72841e-05 16.1476 0.34198 16.1558 0.817126C16.1598 1.04617 16.1558 1.27603 16.1558 1.53919C16.3036 1.53919 16.4425 1.53756 16.5806 1.53919C17.0654 1.54731 17.5512 1.50751 18.0287 1.65046C19.1074 1.97291 19.9017 2.94351 19.9837 4.06355C19.991 4.16427 19.9975 4.26579 19.9975 4.36732C19.9975 8.88811 20 13.4089 19.9975 17.9297C19.9967 19.2495 19.2138 20.3152 17.9922 20.6531C17.729 20.7262 17.4464 20.7586 17.1735 20.7595C12.3895 20.766 7.60476 20.7651 2.82081 20.7635C1.21506 20.7635 0.0129817 19.5728 0.00485958 17.963C-0.00326258 16.2801 0.00242293 14.598 0.00242293 12.9151C0.00242293 10.0699 -1.37131e-05 7.22551 0.00404737 4.38032C0.0056718 3.21235 0.527114 2.35059 1.56594 1.81209C1.91844 1.62934 2.30018 1.54325 2.69817 1.54081C3.06935 1.53837 3.43972 1.54081 3.84583 1.54081V1.54ZM18.4625 8.08971H1.55132C1.54645 8.13763 1.54076 8.17093 1.54076 8.20341C1.54076 11.4612 1.5367 14.719 1.5432 17.9768C1.54482 18.7249 2.07195 19.2236 2.82325 19.2236C7.60801 19.2244 12.3936 19.2236 17.1783 19.2236C17.2726 19.2236 17.3684 19.2219 17.4602 19.2041C18.084 19.0822 18.4608 18.5908 18.4608 17.8956C18.4616 14.6987 18.4608 11.5018 18.4608 8.30494V8.08971H18.4625ZM18.4405 6.527C18.4405 5.7026 18.4722 4.89851 18.4283 4.09848C18.4015 3.60465 18.0702 3.23915 17.591 3.14331C17.1304 3.05153 16.6447 3.0824 16.1566 3.05884C16.1566 3.33175 16.1582 3.55429 16.1566 3.77603C16.1509 4.26579 15.8276 4.61586 15.3834 4.61667C14.9407 4.61667 14.6207 4.26579 14.6182 3.7744C14.6166 3.54698 14.6182 3.31956 14.6182 3.09458H5.38335C5.38335 3.35855 5.40934 3.61115 5.37442 3.85481C5.34924 4.03188 5.28101 4.22681 5.16893 4.36326C4.96262 4.61505 4.67104 4.67353 4.35915 4.56794C4.05457 4.46479 3.85639 4.18295 3.84664 3.83613C3.83933 3.58922 3.84502 3.34149 3.84502 3.07915C3.47302 3.07915 3.13027 3.07752 2.7867 3.07915C2.09794 3.08402 1.57568 3.54942 1.54969 4.23818C1.52208 4.98054 1.5432 5.72453 1.54401 6.4669C1.54401 6.48477 1.55863 6.50264 1.56919 6.52619H18.4389L18.4405 6.527Z" fill="black"/>
</svg>
