<svg width="40" height="40" viewBox="0 0 40 40" fill="none" xmlns="http://www.w3.org/2000/svg">
<g clip-path="url(#clip0_1_30)">
<path d="M20 40C31.0457 40 40 31.0457 40 20C40 8.9543 31.0457 0 20 0C8.9543 0 0 8.9543 0 20C0 31.0457 8.9543 40 20 40Z" fill="#00C445" fill-opacity="0.08"/>
<g clip-path="url(#clip1_1_30)">
<mask id="mask0_1_30" style="mask-type:luminance" maskUnits="userSpaceOnUse" x="7" y="7" width="26" height="26">
<path d="M33 7H7V33H33V7Z" fill="white"/>
</mask>
<g mask="url(#mask0_1_30)">
<path d="M28.4192 23.3783C28.4294 23.3692 28.4406 23.36 28.4508 23.3519C29.6191 22.5365 30.2536 21.4335 30.2495 20.06C30.2525 20.0345 30.2556 20.0091 30.2556 19.9837C30.2556 19.9695 30.2515 19.9552 30.2495 19.941C30.2464 19.8434 30.2403 19.7438 30.2312 19.6441C30.1204 18.4597 29.6211 17.5407 28.7843 16.8819C28.4162 16.5769 27.9972 16.342 27.5285 16.1743C27.5285 15.9811 27.5366 15.79 27.5376 15.5999C27.5376 15.5663 27.5376 15.5338 27.5376 15.5002C27.5376 15.4769 27.5376 15.4535 27.5366 15.4311C27.5346 15.3803 27.5315 15.3294 27.5275 15.2796C27.5254 15.2573 27.5254 15.2349 27.5234 15.2125C27.498 14.9604 27.44 14.7195 27.3556 14.4917C27.3546 14.4877 27.3526 14.4846 27.3516 14.4805C27.3384 14.446 27.3241 14.4114 27.3099 14.3768C27.3028 14.3596 27.2946 14.3413 27.2875 14.324C27.2814 14.3097 27.2743 14.2945 27.2672 14.2803C27.0821 13.8807 26.8086 13.535 26.4659 13.2656C25.9738 12.8722 25.3505 12.6404 24.6753 12.6414C24.5157 12.6414 24.4262 12.6028 24.3489 12.4879C24.3377 12.4686 24.3276 12.4482 24.3164 12.4279C24.1191 12.0568 23.8507 11.76 23.5405 11.5383C23.5212 11.5241 23.5019 11.5099 23.4816 11.4966C23.4775 11.4936 23.4734 11.4916 23.4704 11.4895C23.3484 11.4082 23.2202 11.338 23.087 11.2791C23.0799 11.276 23.0728 11.274 23.0667 11.2709C23.0281 11.2547 22.9894 11.2384 22.9498 11.2232C22.9325 11.2171 22.9152 11.212 22.8989 11.2059C22.8694 11.1957 22.84 11.1845 22.8105 11.1754C22.783 11.1673 22.7545 11.1601 22.7271 11.152C22.7078 11.1469 22.6885 11.1408 22.6691 11.1357C22.6325 11.1266 22.5959 11.1195 22.5583 11.1113C22.5471 11.1093 22.5359 11.1063 22.5247 11.1042C22.482 11.0961 22.4403 11.09 22.3976 11.0839C22.3915 11.0839 22.3854 11.0819 22.3793 11.0808C22.3336 11.0747 22.2888 11.0707 22.2431 11.0676C22.24 11.0676 22.236 11.0676 22.2329 11.0676C22.1872 11.0646 22.1414 11.0625 22.0946 11.0615C22.0916 11.0615 22.0875 11.0615 22.0845 11.0615C22.0397 11.0615 21.996 11.0615 21.9513 11.0636C21.9462 11.0636 21.9411 11.0636 21.936 11.0636C21.8943 11.0656 21.8536 11.0686 21.812 11.0727C21.8038 11.0727 21.7957 11.0737 21.7865 11.0747C21.7499 11.0788 21.7133 11.0839 21.6767 11.089C21.6635 11.091 21.6503 11.092 21.6381 11.0941C21.6066 11.0991 21.5761 11.1052 21.5445 11.1124C21.5262 11.1164 21.5079 11.1195 21.4906 11.1235C21.4652 11.1296 21.4398 11.1357 21.4154 11.1429C21.392 11.149 21.3676 11.154 21.3442 11.1612C21.3249 11.1662 21.3066 11.1734 21.2873 11.1795C21.2578 11.1886 21.2283 11.1978 21.1988 11.2079C21.1856 11.213 21.1724 11.2181 21.1592 11.2232C21.1246 11.2364 21.09 11.2486 21.0565 11.2638C21.0483 11.2669 21.0412 11.2709 21.0331 11.275C20.9934 11.2923 20.9548 11.3096 20.9161 11.3289C20.9121 11.3309 20.909 11.333 20.905 11.335C20.8622 11.3563 20.8206 11.3787 20.7789 11.4031C20.5999 11.5068 20.4291 11.6339 20.2725 11.7864C20.2705 11.7884 20.2694 11.7894 20.2674 11.7915C20.2339 11.824 20.2013 11.8576 20.1688 11.8921C20.1606 11.9003 20.1535 11.9094 20.1454 11.9175C20.1007 11.9663 20.0539 12.0162 20.002 12.0731C19.9502 12.0162 19.9034 11.9674 19.8586 11.9175C19.8505 11.9094 19.8434 11.9003 19.8353 11.8921C19.8027 11.8576 19.7702 11.824 19.7366 11.7915C19.7346 11.7894 19.7336 11.7884 19.7315 11.7864C19.575 11.6339 19.4041 11.5068 19.2252 11.4031C19.1835 11.3787 19.1408 11.3563 19.0991 11.335C19.095 11.333 19.092 11.3309 19.0879 11.3289C19.0493 11.3096 19.0106 11.2923 18.971 11.275C18.9628 11.272 18.9547 11.2679 18.9466 11.2638C18.912 11.2496 18.8784 11.2364 18.8439 11.2232C18.8306 11.2181 18.8174 11.213 18.8042 11.2079C18.7747 11.1978 18.7452 11.1886 18.7168 11.1795C18.6974 11.1734 18.6791 11.1673 18.6598 11.1612C18.6364 11.154 18.612 11.149 18.5886 11.1429C18.5632 11.1368 18.5378 11.1296 18.5124 11.1235C18.4941 11.1195 18.4758 11.1164 18.4585 11.1134C18.427 11.1073 18.3965 11.1002 18.3649 11.0951C18.3517 11.093 18.3385 11.092 18.3263 11.09C18.2897 11.0849 18.2531 11.0788 18.2165 11.0758C18.2084 11.0758 18.2002 11.0747 18.1921 11.0737C18.1504 11.0697 18.1097 11.0666 18.068 11.0646C18.063 11.0646 18.0579 11.0646 18.0528 11.0646C18.008 11.0625 17.9643 11.0615 17.9196 11.0625C17.9165 11.0625 17.9125 11.0625 17.9094 11.0625C17.8637 11.0625 17.8179 11.0646 17.7711 11.0686C17.7681 11.0686 17.764 11.0686 17.761 11.0686C17.7152 11.0717 17.6694 11.0768 17.6247 11.0819C17.6186 11.0819 17.6125 11.0839 17.6064 11.0849C17.5637 11.091 17.522 11.0971 17.4793 11.1052C17.4681 11.1073 17.4569 11.1103 17.4447 11.1124C17.4081 11.1195 17.3715 11.1276 17.3349 11.1357C17.3156 11.1408 17.2963 11.1469 17.2759 11.152C17.2485 11.1591 17.22 11.1662 17.1926 11.1754C17.1631 11.1845 17.1336 11.1947 17.1041 11.2059C17.0868 11.212 17.0695 11.2171 17.0533 11.2232C17.0146 11.2374 16.976 11.2537 16.9373 11.2699C16.9302 11.273 16.9231 11.276 16.916 11.2791C16.7828 11.337 16.6547 11.4082 16.5326 11.4895C16.5286 11.4916 16.5245 11.4946 16.5215 11.4966C16.5021 11.5099 16.4828 11.5241 16.4635 11.5383C16.1524 11.761 15.8839 12.0578 15.6856 12.4289C15.6744 12.4503 15.6633 12.4706 15.6531 12.4889C15.5758 12.6048 15.4863 12.6424 15.3267 12.6424C14.6515 12.6414 14.0282 12.8732 13.5361 13.2666C13.1934 13.5361 12.9209 13.8817 12.7348 14.2813C12.7277 14.2955 12.7216 14.3097 12.7145 14.325C12.7064 14.3423 12.6992 14.3606 12.6921 14.3779C12.6779 14.4124 12.6637 14.447 12.6504 14.4816C12.6494 14.4846 12.6474 14.4887 12.6464 14.4917C12.561 14.7184 12.503 14.9604 12.4776 15.2125C12.4755 15.2349 12.4755 15.2573 12.4735 15.2796C12.4694 15.3294 12.4664 15.3793 12.4644 15.4301C12.4644 15.4535 12.4644 15.4769 12.4633 15.4992C12.4633 15.5318 12.4633 15.5653 12.4633 15.5989C12.4644 15.788 12.4725 15.9801 12.4725 16.1733C12.0037 16.341 11.5848 16.5759 11.2167 16.8809C10.3799 17.5397 9.88063 18.4587 9.7698 19.6431C9.76064 19.7438 9.75454 19.8424 9.75149 19.94C9.74946 19.9542 9.74641 19.9685 9.74539 19.9827C9.74539 20.0091 9.74844 20.0335 9.75149 20.0589C9.74743 21.4314 10.3819 22.5355 11.5502 23.3509C11.5604 23.36 11.5716 23.3692 11.5818 23.3773C11.6855 23.4637 11.717 23.5207 11.6957 23.6305C11.6916 23.6457 11.6875 23.662 11.6824 23.6793C11.5655 24.0697 11.5075 24.4489 11.5106 24.8138C11.5106 24.8311 11.5126 24.8484 11.5126 24.8647C11.5136 24.9196 11.5157 24.9745 11.5197 25.0294C11.5218 25.0517 11.5248 25.0731 11.5269 25.0944C11.5319 25.1443 11.536 25.1941 11.5431 25.2429C11.5462 25.2632 11.5502 25.2825 11.5543 25.3018C11.5624 25.3527 11.5716 25.4025 11.5818 25.4523C11.5848 25.4665 11.5899 25.4818 11.5929 25.496C11.6062 25.5509 11.6194 25.6058 11.6357 25.6597C11.6377 25.6678 11.6407 25.675 11.6438 25.6831C11.6621 25.7431 11.6824 25.8041 11.7048 25.863C11.7048 25.863 11.7048 25.8651 11.7058 25.8661C11.8573 26.2646 12.0983 26.6408 12.4338 26.9925C12.4349 26.9946 12.4369 26.9956 12.4379 26.9966C12.4379 26.9966 12.442 27.0007 12.444 27.0027C12.4969 27.0576 12.5508 27.1115 12.6057 27.1623C12.6118 27.1674 12.6179 27.1725 12.623 27.1776C12.6748 27.2243 12.7267 27.2701 12.7796 27.3138C12.7816 27.3148 12.7826 27.3158 12.7847 27.3179C13.3683 27.7937 14.0303 28.0255 14.7563 28.0245C15.0501 28.0245 15.3541 27.9879 15.6673 27.9136C15.6897 27.9086 15.7111 27.9025 15.7314 27.8984C15.8504 27.8831 15.9256 27.9187 16.0141 28.0214C16.1046 28.1302 16.2012 28.2298 16.3039 28.3193C16.3272 28.3396 16.3506 28.3589 16.374 28.3783C16.3791 28.3823 16.3842 28.3864 16.3893 28.3904C16.7187 28.6578 17.0949 28.8286 17.5169 28.8978C17.7986 28.9476 18.0874 28.9496 18.371 28.9028C18.3975 28.8988 18.4229 28.8937 18.4493 28.8886C18.4615 28.8866 18.4727 28.8845 18.4849 28.8815C18.7147 28.8347 18.9303 28.7575 19.1337 28.6497C19.1367 28.6487 19.1387 28.6466 19.1418 28.6456C19.1713 28.6294 19.2008 28.6131 19.2303 28.5968C19.4672 28.4606 19.6868 28.2827 19.882 28.0641C19.9024 28.0417 19.9227 28.0184 19.943 27.995C19.9563 27.9807 19.9746 27.9665 20.0041 27.9401C20.0325 27.9655 20.0508 27.9797 20.0651 27.995C20.0854 28.0184 20.1057 28.0417 20.1261 28.0641C20.3203 28.2837 20.5409 28.4616 20.7779 28.5968C20.8073 28.6141 20.8368 28.6304 20.8663 28.6456C20.8694 28.6466 20.8714 28.6487 20.8744 28.6497C21.0768 28.7575 21.2934 28.8347 21.5232 28.8815C21.5354 28.8835 21.5466 28.8856 21.5588 28.8886C21.5842 28.8937 21.6106 28.8988 21.6371 28.9028C21.9208 28.9486 22.2095 28.9476 22.4912 28.8978C22.9132 28.8286 23.2904 28.6568 23.6188 28.3904C23.6239 28.3864 23.629 28.3823 23.6341 28.3783C23.6575 28.3589 23.6809 28.3396 23.7042 28.3193C23.8069 28.2298 23.9046 28.1302 23.994 28.0214C24.0825 27.9187 24.1578 27.8842 24.2767 27.8984C24.2971 27.9035 24.3184 27.9086 24.3408 27.9136C24.654 27.9879 24.958 28.0255 25.2518 28.0245C25.9779 28.0255 26.6398 27.7937 27.2235 27.3179C27.2255 27.3169 27.2265 27.3158 27.2285 27.3138C27.2814 27.2711 27.3333 27.2254 27.3851 27.1776C27.3912 27.1725 27.3973 27.1674 27.4024 27.1623C27.4573 27.1115 27.5112 27.0586 27.5641 27.0027C27.5661 27.0007 27.5682 26.9986 27.5702 26.9966C27.5702 26.9966 27.5732 26.9936 27.5743 26.9915C27.9098 26.6408 28.1508 26.2636 28.3023 25.8651C28.3023 25.8651 28.3023 25.863 28.3033 25.862C28.3257 25.802 28.346 25.741 28.3653 25.68C28.3674 25.6729 28.3704 25.6658 28.3725 25.6587C28.3887 25.6048 28.4019 25.5499 28.4152 25.495C28.4182 25.4808 28.4233 25.4665 28.4263 25.4523C28.4375 25.4015 28.4457 25.3506 28.4548 25.2998C28.4579 25.2805 28.4619 25.2622 28.465 25.2429C28.4721 25.1931 28.4772 25.1422 28.4823 25.0914C28.4843 25.0711 28.4874 25.0497 28.4894 25.0294C28.4935 24.9735 28.4955 24.9175 28.4965 24.8606C28.4965 24.8443 28.4985 24.8291 28.4985 24.8128C28.5016 24.4479 28.4436 24.0686 28.3267 23.6782C28.3216 23.661 28.3165 23.6447 28.3135 23.6294C28.2911 23.5196 28.3226 23.4627 28.4274 23.3763L28.4192 23.3783ZM27.2133 22.8497C27.195 22.8558 27.1767 22.8619 27.1594 22.867C26.9367 22.9371 26.6998 22.9839 26.4486 23.0072C26.3724 23.0144 26.2961 23.0174 26.2209 23.0245C26.1975 23.0266 26.1751 23.0316 26.1538 23.0367C25.9168 23.0713 25.7613 23.2238 25.7236 23.4292C25.7226 23.4353 25.7206 23.4403 25.7196 23.4464C25.7165 23.4658 25.7165 23.4871 25.7155 23.5074C25.7155 23.5207 25.7125 23.5329 25.7135 23.5461C25.7135 23.5491 25.7135 23.5522 25.7145 23.5542C25.7145 23.5573 25.7145 23.5603 25.7145 23.5634C25.7155 23.5786 25.7196 23.5918 25.7216 23.6071C25.7247 23.6254 25.7257 23.6437 25.7297 23.661C25.7338 23.6762 25.7399 23.6904 25.745 23.7047C25.7511 23.722 25.7562 23.7392 25.7633 23.7545C25.7714 23.7718 25.7826 23.787 25.7918 23.8033C25.7989 23.8145 25.804 23.8267 25.8121 23.8368C25.8274 23.8572 25.8457 23.8755 25.864 23.8938C25.868 23.8978 25.8721 23.9029 25.8772 23.907C25.926 23.9497 25.985 23.9832 26.0521 24.0046C26.0582 24.0066 26.0643 24.0066 26.0704 24.0087C26.0978 24.0168 26.1263 24.0239 26.1568 24.027C26.169 24.029 26.1832 24.027 26.1965 24.029C26.2209 24.031 26.2443 24.0331 26.2697 24.032C26.4954 24.0229 26.7262 24.0087 26.9469 23.9649C27.0516 23.9517 27.1563 23.9395 27.2621 23.9273C27.3078 23.9416 27.3394 23.9741 27.3628 24.0239C27.4248 24.2344 27.4604 24.4407 27.4705 24.642C27.4838 25.1117 27.3526 25.5692 27.1055 25.9545C27.0516 26.0349 26.9926 26.1142 26.9265 26.1914C26.8289 26.3063 26.7262 26.407 26.6184 26.4974C26.593 26.5178 26.5686 26.5381 26.5432 26.5574C26.533 26.5655 26.5229 26.5727 26.5127 26.5808C26.3419 26.7028 26.1517 26.8034 25.9453 26.8766C25.804 26.9265 25.6626 26.961 25.5193 26.9844C25.3088 27.0129 25.0881 27.0129 24.8573 26.9844C24.7882 26.9732 24.719 26.958 24.6489 26.9387C24.596 26.9122 24.5675 26.8716 24.5594 26.8024C24.5675 26.6845 24.5767 26.5737 24.5787 26.4629C24.595 26.0471 24.5157 25.6526 24.3133 25.2957C24.2828 25.2408 24.2493 25.1859 24.2127 25.1331C24.2076 25.126 24.2015 25.1178 24.1964 25.1107C24.1608 25.0609 24.1232 25.0121 24.0825 24.9643C24.0825 24.9643 24.0815 24.9633 24.0805 24.9623C24.0795 24.9602 24.0784 24.9592 24.0764 24.9572C23.9035 24.7559 23.6646 24.7091 23.4622 24.8088C23.4561 24.8118 23.45 24.8138 23.4439 24.8169C23.4246 24.8271 23.4063 24.8413 23.388 24.8545C23.3789 24.8616 23.3687 24.8667 23.3595 24.8738C23.3595 24.8738 23.3585 24.8748 23.3575 24.8759C23.3575 24.8759 23.3555 24.8769 23.3545 24.8779C23.3382 24.8911 23.326 24.9064 23.3118 24.9206C23.3026 24.9297 23.2924 24.9389 23.2843 24.948C23.2762 24.9582 23.2701 24.9694 23.263 24.9796C23.2294 25.0273 23.204 25.0792 23.1897 25.1341C23.1521 25.2774 23.1816 25.4381 23.2833 25.5845C23.5782 26.0084 23.626 26.5056 23.4683 26.9346C23.4084 27.0912 23.3199 27.2416 23.203 27.3779C23.1236 27.4694 23.0372 27.5507 22.9437 27.6198C22.9437 27.6198 22.9427 27.6198 22.9416 27.6208C22.906 27.6473 22.8684 27.6717 22.8308 27.6951C22.7922 27.7184 22.7515 27.7408 22.7098 27.7611C22.7017 27.7652 22.6935 27.7693 22.6844 27.7733C22.661 27.7845 22.6376 27.7947 22.6132 27.8049C22.6041 27.8089 22.5959 27.812 22.5868 27.815C22.5634 27.8242 22.541 27.8323 22.5176 27.8404C22.5003 27.8465 22.482 27.8516 22.4648 27.8567C22.4515 27.8608 22.4373 27.8648 22.4241 27.8689C22.1343 27.9452 21.8211 27.934 21.5232 27.8262C21.3391 27.7601 21.1744 27.6625 21.0341 27.5426C21.0249 27.5354 21.0168 27.5273 21.0077 27.5202C21.0016 27.5151 20.9965 27.51 20.9914 27.5049C20.7006 27.2315 20.5114 26.84 20.5084 26.3826C20.5084 26.2392 20.5084 26.0959 20.5064 25.9535C20.5033 24.5394 20.5043 23.1242 20.5043 21.71C20.5043 21.5077 20.5043 21.3054 20.5043 21.1031C20.5043 21.0553 20.5125 21.0065 20.5155 20.9638C20.6213 20.9821 20.724 21.0044 20.8246 21.0227C20.8287 21.0227 20.8317 21.0248 20.8358 21.0258C20.9436 21.0461 21.0524 21.0644 21.1622 21.0675C21.1886 21.0675 21.2141 21.0654 21.2395 21.0634C21.2415 21.0634 21.2425 21.0634 21.2446 21.0634C21.5181 21.039 21.7032 20.8641 21.7225 20.6049C21.7428 20.3202 21.5496 20.1016 21.2395 20.0579C21.0219 20.0274 20.8592 19.9685 20.7433 19.8739C20.727 19.8607 20.7107 19.8465 20.6965 19.8322C20.6894 19.8251 20.6813 19.818 20.6741 19.8099C20.6497 19.7814 20.6274 19.7489 20.608 19.7153C20.606 19.7112 20.603 19.7072 20.6009 19.7031C20.5836 19.6706 20.5694 19.635 20.5562 19.5974C20.5521 19.5862 20.5481 19.576 20.545 19.5638C20.5358 19.5323 20.5287 19.4977 20.5226 19.4622C20.5196 19.4428 20.5155 19.4235 20.5135 19.4022C20.5084 19.3605 20.5053 19.3178 20.5053 19.272C20.5053 19.2598 20.5053 19.2466 20.5053 19.2344C20.5053 19.0891 20.5053 18.9447 20.5053 18.7993C20.5053 18.415 20.5053 18.0307 20.5053 17.6474C20.5053 17.5325 20.5053 17.4187 20.5053 17.3038C20.5053 17.1005 20.5053 16.8971 20.5053 16.6938C20.5053 15.7686 20.5053 14.8425 20.5074 13.9173C20.5074 13.8339 20.5074 13.7506 20.5084 13.6682C20.5114 13.5208 20.5267 13.3724 20.5613 13.23C20.6365 12.92 20.8165 12.6475 21.0554 12.4452C21.0646 12.4371 21.0748 12.4299 21.0839 12.4218C21.1012 12.4086 21.1185 12.3944 21.1358 12.3822C21.3035 12.2612 21.4978 12.1707 21.7113 12.1209C21.873 12.0833 22.0357 12.0741 22.1933 12.0873C22.2156 12.0894 22.238 12.0924 22.2604 12.0955C22.2705 12.0965 22.2807 12.0985 22.2909 12.0995C22.4007 12.1178 22.5075 12.1463 22.6081 12.1859C22.6102 12.1859 22.6112 12.187 22.6132 12.188C22.6437 12.2002 22.6742 12.2134 22.7047 12.2276C22.9488 12.3445 23.1613 12.5286 23.3199 12.7695C23.3504 12.8193 23.3779 12.8702 23.4012 12.923C23.324 12.9698 23.2345 13.0064 23.1674 13.0674C22.8766 13.3337 22.5766 13.594 22.3102 13.8838C22.2258 13.9753 22.1922 14.083 22.2004 14.1938C22.2004 14.2111 22.2024 14.2284 22.2055 14.2447C22.2217 14.3453 22.2705 14.4429 22.3437 14.5212C22.4556 14.6493 22.6041 14.7073 22.7627 14.6778C22.8847 14.6635 23.0047 14.6036 23.1003 14.4988C23.1399 14.4551 23.1745 14.4063 23.2131 14.3616C23.3057 14.2528 23.4023 14.1562 23.5029 14.0718C23.5111 14.0657 23.5192 14.0586 23.5273 14.0525C23.5487 14.0352 23.57 14.019 23.5914 14.0027C23.8293 13.8339 24.1008 13.7241 24.4069 13.6723C24.4272 13.6692 24.4475 13.6672 24.4679 13.6642C24.6662 13.6459 24.8746 13.6591 25.0942 13.7069C25.1888 13.7272 25.2803 13.7557 25.3688 13.7912C25.3688 13.7912 25.3688 13.7912 25.3698 13.7912C25.3891 13.7994 25.4084 13.8075 25.4278 13.8167C26.1721 14.1644 26.6774 15.0021 26.4852 15.8276C26.4741 15.8723 26.4608 15.9171 26.4446 15.9608C26.3764 15.9608 26.3032 15.9577 26.23 15.9608C26.2239 15.9608 26.2188 15.9628 26.2127 15.9628C26.2077 15.9628 26.2036 15.9628 26.1985 15.9628C26.1822 15.9638 26.167 15.9679 26.1517 15.9699C26.1395 15.972 26.1263 15.973 26.1141 15.976C26.0877 15.9821 26.0633 15.9893 26.0389 15.9984C26.0328 16.0004 26.0256 16.0025 26.0185 16.0055C25.9972 16.0147 25.9768 16.0248 25.9565 16.036C25.9473 16.0411 25.9382 16.0452 25.9301 16.0513C25.9158 16.0604 25.9036 16.0706 25.8914 16.0808C25.8792 16.0909 25.866 16.1001 25.8548 16.1113C25.8477 16.1184 25.8416 16.1265 25.8345 16.1346C25.8202 16.1499 25.807 16.1651 25.7948 16.1824C25.7908 16.1885 25.7877 16.1946 25.7847 16.2007C25.7725 16.22 25.7603 16.2404 25.7511 16.2617C25.747 16.2709 25.745 16.28 25.742 16.2892C25.7348 16.3095 25.7277 16.3288 25.7226 16.3502C25.7196 16.3654 25.7186 16.3807 25.7165 16.3969C25.7145 16.4132 25.7104 16.4285 25.7104 16.4447C25.7104 16.4457 25.7104 16.4468 25.7104 16.4488V16.4508C25.7104 16.463 25.7125 16.4752 25.7125 16.4874C25.7196 16.7284 25.8802 16.9195 26.1365 16.9591C26.1466 16.9612 26.1568 16.9642 26.168 16.9663C26.2768 16.9805 26.3876 16.9846 26.4964 16.9937C26.6184 17.0049 26.7374 17.0232 26.8533 17.0476C26.8727 17.0517 26.892 17.0557 26.9113 17.0598C26.9133 17.0598 26.9154 17.0608 26.9174 17.0608C27.134 17.1127 27.3394 17.1849 27.5336 17.2794C27.5407 17.2825 27.5478 17.2865 27.5549 17.2896C27.5966 17.3099 27.6383 17.3323 27.679 17.3546C27.6902 17.3607 27.7014 17.3678 27.7136 17.374C27.7512 17.3953 27.7878 17.4166 27.8234 17.44C27.8396 17.4502 27.8549 17.4604 27.8701 17.4705C27.9017 17.4909 27.9322 17.5122 27.9637 17.5336C27.9911 17.5539 28.0186 17.5742 28.0461 17.5956C28.0633 17.6088 28.0796 17.621 28.0969 17.6342C29.2073 18.5268 29.6282 20.1687 28.8199 21.5209C28.6907 21.7374 28.5453 21.9296 28.3847 22.1004C28.0562 22.4349 27.6841 22.6768 27.2682 22.8304C27.2489 22.8375 27.2296 22.8446 27.2092 22.8507L27.2133 22.8497ZM19.4875 26.3826C19.4845 26.84 19.2953 27.2315 19.0045 27.5049C18.9994 27.51 18.9933 27.5151 18.9883 27.5202C18.9801 27.5283 18.971 27.5354 18.9618 27.5426C18.8215 27.6635 18.6568 27.7601 18.4727 27.8262C18.1738 27.934 17.8616 27.9441 17.5718 27.8689C17.5586 27.8648 17.5444 27.8608 17.5312 27.8567C17.5129 27.8516 17.4956 27.8465 17.4783 27.8404C17.4549 27.8323 17.4325 27.8242 17.4091 27.815C17.4 27.812 17.3919 27.8079 17.3827 27.8049C17.3593 27.7947 17.3349 27.7845 17.3115 27.7733C17.3034 27.7693 17.2953 27.7652 17.2861 27.7611C17.2444 27.7408 17.2037 27.7184 17.1651 27.6951C17.1275 27.6717 17.0909 27.6473 17.0543 27.6208C17.0543 27.6208 17.0533 27.6208 17.0522 27.6198C16.9587 27.5507 16.8712 27.4704 16.7929 27.3779C16.676 27.2416 16.5876 27.0912 16.5276 26.9346C16.37 26.5056 16.4177 26.0084 16.7126 25.5845C16.8143 25.4381 16.8438 25.2774 16.8062 25.1331C16.7919 25.0782 16.7675 25.0273 16.733 24.9796C16.7258 24.9694 16.7197 24.9582 16.7116 24.948C16.7035 24.9379 16.6933 24.9297 16.6841 24.9206C16.6699 24.9064 16.6577 24.8911 16.6414 24.8779C16.6414 24.8779 16.6394 24.8769 16.6384 24.8759C16.6384 24.8759 16.6374 24.8748 16.6364 24.8738C16.6272 24.8667 16.617 24.8616 16.6079 24.8545C16.5896 24.8413 16.5713 24.8271 16.552 24.8169C16.5459 24.8138 16.5398 24.8118 16.5337 24.8088C16.3313 24.7091 16.0924 24.7569 15.9195 24.9572C15.9185 24.9582 15.9175 24.9602 15.9154 24.9623C15.9154 24.9623 15.9144 24.9633 15.9134 24.9643C15.8727 25.0121 15.8351 25.0609 15.7995 25.1097C15.7944 25.1168 15.7883 25.1249 15.7832 25.1321C15.7466 25.1849 15.7131 25.2388 15.6826 25.2927C15.4812 25.6496 15.4019 26.045 15.4182 26.4608C15.4203 26.5717 15.4294 26.6825 15.4375 26.7994C15.4304 26.8675 15.4009 26.9092 15.3481 26.9356C15.2789 26.9539 15.2087 26.9702 15.1396 26.9814C14.9088 27.0088 14.6881 27.0088 14.4777 26.9814C14.3353 26.959 14.1929 26.9234 14.0516 26.8736C13.8442 26.8014 13.6551 26.7008 13.4842 26.5778C13.4741 26.5706 13.4639 26.5625 13.4537 26.5544C13.4273 26.5351 13.4029 26.5147 13.3785 26.4944C13.2707 26.4049 13.168 26.3033 13.0704 26.1884C13.0043 26.1111 12.9453 26.0318 12.8914 25.9515C12.6443 25.5662 12.5132 25.1087 12.5264 24.639C12.5366 24.4377 12.5721 24.2313 12.6342 24.0209C12.6586 23.971 12.6891 23.9385 12.7348 23.9243C12.8406 23.9365 12.9453 23.9487 13.05 23.9619C13.2717 24.0056 13.5015 24.0198 13.7273 24.029C13.7527 24.03 13.776 24.028 13.8005 24.0259C13.8137 24.0259 13.8269 24.0259 13.8401 24.0239C13.8706 24.0198 13.8991 24.0127 13.9265 24.0056C13.9326 24.0036 13.9398 24.0036 13.9459 24.0015C14.013 23.9802 14.0719 23.9466 14.1207 23.9039C14.1258 23.8999 14.1289 23.8948 14.134 23.8907C14.1523 23.8724 14.1706 23.8541 14.1858 23.8338C14.194 23.8236 14.1991 23.8114 14.2062 23.8002C14.2163 23.784 14.2265 23.7687 14.2346 23.7514C14.2418 23.7352 14.2468 23.7189 14.2529 23.7016C14.258 23.6874 14.2641 23.6732 14.2682 23.6579C14.2723 23.6406 14.2743 23.6223 14.2763 23.604C14.2784 23.5898 14.2824 23.5756 14.2834 23.5603C14.2834 23.5573 14.2834 23.5542 14.2834 23.5512C14.2834 23.5481 14.2834 23.5451 14.2845 23.543C14.2845 23.5298 14.2824 23.5176 14.2824 23.5044C14.2824 23.4841 14.2824 23.4637 14.2784 23.4434C14.2784 23.4373 14.2753 23.4322 14.2743 23.4261C14.2377 23.2207 14.0811 23.0693 13.8442 23.0337C13.8218 23.0296 13.8005 23.0245 13.7771 23.0215C13.7008 23.0144 13.6256 23.0113 13.5493 23.0042C13.2982 22.9808 13.0612 22.934 12.8386 22.8639C12.8203 22.8578 12.8019 22.8527 12.7847 22.8466C12.7653 22.8405 12.746 22.8324 12.7257 22.8263C12.3098 22.6728 11.9377 22.4308 11.6092 22.0963C11.4496 21.9265 11.3042 21.7334 11.174 21.5168C10.3656 20.1657 10.7876 18.5228 11.897 17.6301C11.9132 17.6169 11.9305 17.6047 11.9468 17.5915C11.9743 17.5702 12.0017 17.5498 12.0292 17.5295C12.0597 17.5081 12.0912 17.4868 12.1227 17.4665C12.138 17.4563 12.1542 17.4461 12.1695 17.436C12.2061 17.4126 12.2427 17.3912 12.2793 17.3699C12.2905 17.3638 12.3017 17.3567 12.3139 17.3506C12.3545 17.3282 12.3962 17.3058 12.4379 17.2855C12.445 17.2825 12.4522 17.2784 12.4593 17.2753C12.6545 17.1808 12.8599 17.1086 13.0765 17.0568C13.0785 17.0568 13.0806 17.0568 13.0816 17.0557C13.1009 17.0517 13.1202 17.0476 13.1395 17.0435C13.2554 17.0191 13.3744 17.0008 13.4964 16.9896C13.6062 16.9805 13.7161 16.9764 13.8249 16.9622C13.8361 16.9612 13.8452 16.9571 13.8564 16.9551C14.1126 16.9154 14.2733 16.7253 14.2804 16.4834C14.2804 16.4712 14.2824 16.459 14.2824 16.4468V16.4447C14.2824 16.4437 14.2824 16.4427 14.2824 16.4407C14.2824 16.4244 14.2784 16.4091 14.2763 16.3929C14.2743 16.3776 14.2733 16.3614 14.2702 16.3471C14.2651 16.3258 14.258 16.3054 14.2509 16.2861C14.2479 16.277 14.2458 16.2678 14.2418 16.2597C14.2326 16.2383 14.2204 16.218 14.2082 16.1977C14.2041 16.1916 14.2021 16.1855 14.198 16.1794C14.1858 16.1621 14.1726 16.1468 14.1584 16.1316C14.1513 16.1245 14.1452 16.1163 14.138 16.1082C14.1269 16.097 14.1136 16.0879 14.1014 16.0777C14.0882 16.0675 14.076 16.0574 14.0628 16.0482C14.0547 16.0431 14.0445 16.0381 14.0364 16.033C14.017 16.0218 13.9967 16.0106 13.9743 16.0025C13.9682 15.9994 13.9611 15.9984 13.954 15.9954C13.9296 15.9862 13.9052 15.9781 13.8787 15.973C13.8665 15.9699 13.8533 15.9689 13.8411 15.9669C13.8259 15.9649 13.8106 15.9608 13.7944 15.9598C13.7893 15.9598 13.7852 15.9598 13.7801 15.9598C13.774 15.9598 13.7689 15.9577 13.7628 15.9577C13.6896 15.9537 13.6164 15.9577 13.5483 15.9577C13.532 15.914 13.5198 15.8693 13.5076 15.8246C13.3154 14.999 13.8208 14.1613 14.5651 13.8136C14.5844 13.8055 14.6037 13.7963 14.6231 13.7882C14.6231 13.7882 14.6241 13.7882 14.6251 13.7882C14.7136 13.7526 14.8051 13.7241 14.8986 13.7038C15.1183 13.656 15.3267 13.6438 15.525 13.6611C15.5453 13.6642 15.5656 13.6662 15.586 13.6692C15.8931 13.7211 16.1635 13.8309 16.4015 13.9997C16.4228 14.0159 16.4442 14.0322 16.4655 14.0495C16.4737 14.0556 16.4818 14.0617 16.4899 14.0688C16.5906 14.1532 16.6882 14.2498 16.7797 14.3585C16.8184 14.4033 16.8519 14.4531 16.8926 14.4958C16.9892 14.5995 17.1082 14.6605 17.2302 14.6747C17.3888 14.7042 17.5373 14.6463 17.6491 14.5182C17.7233 14.4399 17.7721 14.3433 17.7874 14.2416C17.7904 14.2243 17.7915 14.2071 17.7925 14.1908C17.7996 14.08 17.7671 13.9722 17.6827 13.8807C17.4163 13.591 17.1163 13.3307 16.8255 13.0643C16.7584 13.0033 16.6699 12.9667 16.5916 12.92C16.615 12.8661 16.6425 12.8153 16.673 12.7665C16.8316 12.5265 17.0441 12.3415 17.2881 12.2246C17.3176 12.2103 17.3481 12.1971 17.3797 12.1849C17.3817 12.1849 17.3827 12.1839 17.3847 12.1829C17.4864 12.1432 17.5932 12.1148 17.702 12.0965C17.7121 12.0944 17.7223 12.0934 17.7325 12.0924C17.7549 12.0894 17.7772 12.0863 17.7996 12.0843C17.9572 12.07 18.1199 12.0802 18.2816 12.1178C18.4951 12.1676 18.6893 12.2571 18.8571 12.3791C18.8744 12.3923 18.8917 12.4055 18.9079 12.4188C18.9181 12.4269 18.9272 12.434 18.9364 12.4421C19.1753 12.6445 19.3543 12.9169 19.4306 13.227C19.4651 13.3693 19.4804 13.5188 19.4834 13.6652C19.4834 13.7485 19.4834 13.8309 19.4845 13.9143C19.4865 14.8394 19.4865 15.7656 19.4865 16.6908C19.4865 16.8941 19.4865 17.0974 19.4865 17.3008C19.4865 17.4156 19.4865 17.5295 19.4865 17.6444C19.4865 18.0277 19.4865 18.4109 19.4865 18.7932C19.4865 18.9396 19.4865 19.085 19.4865 19.2314C19.4865 19.2446 19.4865 19.2568 19.4865 19.269C19.4865 19.3147 19.4824 19.3574 19.4784 19.3991C19.4763 19.4195 19.4723 19.4398 19.4692 19.4591C19.4631 19.4947 19.456 19.5282 19.4468 19.5608C19.4438 19.572 19.4397 19.5831 19.4357 19.5943C19.4235 19.6319 19.4092 19.6675 19.3909 19.7001C19.3889 19.7041 19.3858 19.7082 19.3838 19.7123C19.3645 19.7458 19.3421 19.7783 19.3177 19.8068C19.3106 19.8149 19.3025 19.8221 19.2953 19.8292C19.2811 19.8444 19.2648 19.8576 19.2486 19.8709C19.1316 19.9654 18.97 20.0234 18.7524 20.0549C18.4422 20.0986 18.249 20.3182 18.2694 20.6018C18.2877 20.8611 18.4727 21.036 18.7473 21.0604C18.7493 21.0604 18.7503 21.0604 18.7524 21.0604C18.7778 21.0624 18.8032 21.0654 18.8296 21.0644C18.9384 21.0624 19.0482 21.0431 19.156 21.0227C19.1601 21.0227 19.1631 21.0207 19.1672 21.0197C19.2689 21.0004 19.3706 20.979 19.4763 20.9607C19.4804 21.0034 19.4875 21.0522 19.4875 21.1C19.4875 21.3013 19.4875 21.5026 19.4875 21.7039C19.4875 23.1191 19.4895 24.5343 19.4855 25.9495C19.4855 26.0928 19.4855 26.2372 19.4834 26.3805L19.4875 26.3826Z" fill="#00C546"/>
<path d="M14.5336 30.6384C14.6943 30.432 14.857 30.2277 15.0166 30.0203C15.0308 30.002 15.041 29.9837 15.0532 29.9654C15.0624 29.9532 15.0715 29.942 15.0807 29.9298C15.1844 29.7895 15.2118 29.6401 15.1661 29.4937C15.1661 29.4916 15.1661 29.4906 15.165 29.4886C15.165 29.4865 15.164 29.4855 15.163 29.4835C15.1437 29.4144 15.1071 29.3503 15.0542 29.2934C14.9556 29.1754 14.8254 29.1175 14.6821 29.1246C14.5214 29.1287 14.3587 29.2161 14.2245 29.3839C14.1259 29.5069 14.0282 29.6309 13.9306 29.7539C13.6937 30.0477 13.4598 30.3436 13.226 30.6394C13.2229 30.6435 13.2199 30.6476 13.2158 30.6516C13.1131 30.7818 13.0541 30.9068 13.0358 31.0217C13.0358 31.0278 13.0328 31.0329 13.0328 31.039C13.0328 31.0461 13.0328 31.0532 13.0318 31.0603C13.0084 31.3165 13.1995 31.5138 13.6022 31.6083C13.4476 31.7771 13.3073 31.9245 13.1761 32.0739C13.1741 32.076 13.1721 32.079 13.169 32.081L13.167 32.0841C13.1477 32.1054 13.1284 32.1278 13.1101 32.1492C13.0002 32.2803 12.9636 32.4409 12.9921 32.5884C12.9921 32.5934 12.9931 32.5985 12.9941 32.6026C12.9982 32.6189 13.0033 32.6341 13.0094 32.6494C13.0297 32.7114 13.0623 32.7693 13.1101 32.8212C13.1202 32.8334 13.1294 32.8456 13.1416 32.8568L13.1456 32.8598C13.1477 32.8608 13.1487 32.8629 13.1497 32.8649C13.1599 32.874 13.1721 32.8801 13.1822 32.8893C13.1965 32.9005 13.2107 32.9127 13.227 32.9218C13.2422 32.931 13.2575 32.9381 13.2727 32.9462C13.287 32.9533 13.3012 32.9605 13.3165 32.9666C13.3287 32.9706 13.3409 32.9747 13.3531 32.9777C13.3765 32.9849 13.4009 32.9899 13.4253 32.994C13.5605 33.0123 13.6988 32.9727 13.8106 32.8659C13.8442 32.8395 13.8767 32.81 13.9093 32.7754C13.9876 32.6921 14.0648 32.6077 14.1421 32.5243C14.3241 32.3332 14.5031 32.14 14.68 31.9448C14.7624 31.8564 14.8427 31.7679 14.9261 31.6805C14.981 31.6225 15.0288 31.5636 15.0674 31.5016C15.1986 31.3247 15.1823 31.1061 15.0644 30.9444C14.9779 30.8123 14.8437 30.7472 14.6841 30.7197C14.6343 30.7075 14.5844 30.6964 14.5356 30.6852C14.5326 30.6842 14.5295 30.6821 14.5265 30.6811C14.5326 30.6526 14.5326 30.6425 14.5367 30.6374L14.5336 30.6384Z" fill="#00C546"/>
<path d="M23.7429 22.4755C23.6646 22.4278 23.5721 22.4023 23.4735 22.4034C23.4694 22.4034 23.4663 22.4034 23.4623 22.4023C23.2457 22.4125 23.0454 22.4522 22.8593 22.5193C22.8308 22.5294 22.8034 22.5406 22.7759 22.5518C22.7546 22.5609 22.7332 22.5701 22.7119 22.5803C22.4465 22.7023 22.2207 22.8842 22.0316 23.1333C21.8323 23.3966 21.8567 23.6935 22.0824 23.8765C22.1719 23.9487 22.2736 23.9853 22.3763 23.9893C22.5349 24.0026 22.6966 23.9385 22.8085 23.7931C22.9986 23.5451 23.2386 23.4353 23.5406 23.4058C23.8293 23.3773 24.0225 23.1354 23.9981 22.87C23.9819 22.6972 23.8842 22.5559 23.7419 22.4755H23.7429Z" fill="#00C546"/>
<path d="M15.6226 19.3086C15.6226 19.3086 15.6226 19.2994 15.6216 19.2943C15.6165 19.2598 15.6084 19.2262 15.5972 19.1937L15.5962 19.1896C15.586 19.1601 15.5738 19.1327 15.5596 19.1062C15.5575 19.1012 15.5555 19.0961 15.5524 19.092C15.5402 19.0717 15.527 19.0534 15.5128 19.0351C15.5057 19.0259 15.4996 19.0158 15.4914 19.0066C15.4813 18.9944 15.4691 18.9842 15.4569 18.9731C15.4436 18.9609 15.4314 18.9487 15.4172 18.9375C15.4081 18.9304 15.3979 18.9253 15.3887 18.9192C15.3704 18.907 15.3531 18.8958 15.3338 18.8867C15.3237 18.8816 15.3135 18.8795 15.3033 18.8755C15.283 18.8673 15.2626 18.8592 15.2413 18.8541C15.2281 18.8511 15.2149 18.8501 15.2016 18.848C15.1823 18.845 15.164 18.8399 15.1447 18.8389C15.1427 18.8389 15.1417 18.8389 15.1396 18.8389H15.1376C15.1294 18.8389 15.1223 18.8399 15.1142 18.8399C14.9688 18.8409 14.8437 18.9039 14.7532 19.0107C14.681 19.094 14.6312 19.2008 14.617 19.3248C14.6139 19.3533 14.6099 19.3818 14.6048 19.4082C14.6038 19.4153 14.6027 19.4224 14.6007 19.4295C14.5915 19.4794 14.5814 19.5251 14.5682 19.5688C14.5621 19.5871 14.557 19.6064 14.5509 19.6237C14.5438 19.643 14.5366 19.6624 14.5295 19.6807C14.4716 19.8108 14.3882 19.9145 14.2763 19.9907C14.2743 19.9918 14.2733 19.9928 14.2712 19.9938C14.2438 20.0121 14.2133 20.0263 14.1828 20.0416C14.075 20.0914 13.9469 20.126 13.7913 20.1443C13.6561 20.1605 13.5412 20.2185 13.4578 20.3018C13.4527 20.3059 13.4476 20.31 13.4436 20.3151C13.4344 20.3252 13.4273 20.3364 13.4181 20.3466C13.4059 20.3618 13.3927 20.3771 13.3826 20.3933C13.3805 20.3974 13.3785 20.4015 13.3765 20.4055C13.3632 20.4279 13.351 20.4523 13.3419 20.4767C13.3368 20.4899 13.3348 20.5031 13.3317 20.5164C13.3276 20.5326 13.3226 20.5479 13.3195 20.5652C13.3144 20.5987 13.3114 20.6333 13.3134 20.6699C13.3175 20.7349 13.3338 20.7959 13.3582 20.8518C13.3602 20.8559 13.3612 20.86 13.3622 20.864C13.3714 20.8823 13.3826 20.8986 13.3937 20.9159C13.41 20.9403 13.4283 20.9637 13.4476 20.985C13.4588 20.9962 13.468 21.0084 13.4802 21.0196C13.4883 21.0267 13.4985 21.0318 13.5066 21.0389C13.5249 21.0531 13.5422 21.0674 13.5625 21.0786C13.5676 21.0816 13.5727 21.0826 13.5778 21.0857C13.6032 21.0999 13.6296 21.1121 13.6581 21.1223C13.6602 21.1223 13.6632 21.1233 13.6652 21.1243C13.6967 21.1345 13.7293 21.1436 13.7639 21.1487C13.7679 21.1487 13.772 21.1487 13.7751 21.1497C13.8035 21.1538 13.831 21.1568 13.8605 21.1568C13.8655 21.1568 13.8716 21.1568 13.8767 21.1568H13.8798C13.8859 21.1568 13.892 21.1558 13.8981 21.1558C14.1777 21.1497 14.4492 21.0684 14.6912 20.9301C14.9403 20.7888 15.1569 20.5885 15.3186 20.3527C15.3287 20.3374 15.3379 20.3212 15.3481 20.3059C15.3674 20.2754 15.3877 20.2459 15.405 20.2144C15.4304 20.1697 15.4528 20.1249 15.4741 20.0782C15.4752 20.0751 15.4772 20.0721 15.4782 20.069C15.5677 19.8728 15.6185 19.6624 15.6246 19.4468C15.6246 19.4356 15.6267 19.4234 15.6267 19.4123C15.6267 19.4092 15.6267 19.4062 15.6267 19.4031C15.6267 19.395 15.6277 19.3879 15.6267 19.3797C15.6267 19.3553 15.6226 19.3309 15.6195 19.3075L15.6226 19.3086Z" fill="#00C546"/>
<path d="M18.0538 17.4622C18.0538 17.4622 18.0508 17.4541 18.0487 17.45C18.0416 17.4378 18.0325 17.4266 18.0243 17.4144C18.0142 17.3992 18.004 17.3839 17.9928 17.3697C17.9888 17.3656 17.9847 17.3626 17.9806 17.3585C17.9003 17.2721 17.7864 17.2081 17.6461 17.1816C17.4631 17.1471 17.3309 17.1145 17.2322 17.0667C17.1438 17.021 17.0777 16.961 17.0268 16.8797C16.9658 16.7739 16.9282 16.6265 16.8855 16.409C16.8662 16.3073 16.8255 16.2209 16.7716 16.1518C16.7716 16.1518 16.7696 16.1487 16.7686 16.1467C16.7523 16.1263 16.735 16.1091 16.7177 16.0918C16.7116 16.0857 16.7055 16.0796 16.6994 16.0745C16.6852 16.0633 16.6699 16.0531 16.6547 16.043C16.6425 16.0348 16.6313 16.0267 16.6191 16.0206C16.6069 16.0145 16.5937 16.0094 16.5805 16.0043C16.5642 15.9972 16.5489 15.9901 16.5316 15.985C16.5194 15.981 16.5052 15.9799 16.493 15.9769C16.4747 15.9728 16.4564 15.9688 16.4371 15.9667C16.4239 15.9657 16.4096 15.9667 16.3964 15.9667C16.3781 15.9667 16.3598 15.9647 16.3405 15.9667C16.3385 15.9667 16.3364 15.9667 16.3344 15.9677H16.3324C16.3242 15.9677 16.3171 15.9708 16.31 15.9718C16.1717 15.9901 16.0619 16.0562 15.9877 16.1579C15.9744 16.1762 15.9612 16.1945 15.95 16.2148C15.9195 16.2717 15.8992 16.3368 15.889 16.409C15.888 16.4161 15.889 16.4242 15.887 16.4313C15.8839 16.4568 15.8809 16.4822 15.8809 16.5096C15.8809 16.5127 15.8809 16.5147 15.8809 16.5177C15.8809 16.5208 15.8809 16.5228 15.8809 16.5259C15.8809 16.5584 15.885 16.5899 15.887 16.6225C15.888 16.6418 15.888 16.6621 15.8911 16.6814C15.8951 16.718 15.9022 16.7546 15.9083 16.7912C15.9114 16.8075 15.9134 16.8248 15.9165 16.8411C15.9256 16.8858 15.9378 16.9285 15.951 16.9722C15.9531 16.9803 15.9551 16.9885 15.9572 16.9966C16.0232 17.202 16.129 17.3931 16.2663 17.5588C16.2683 17.5619 16.2713 17.5649 16.2744 17.568C16.3059 17.6056 16.3385 17.6422 16.373 17.6767C16.3842 17.6879 16.3964 17.6981 16.4076 17.7083C16.434 17.7337 16.4615 17.7601 16.49 17.7835C16.5093 17.7998 16.5296 17.815 16.55 17.8303C16.5713 17.8465 16.5927 17.8638 16.615 17.8801C16.6425 17.8994 16.671 17.9167 16.6994 17.934C16.7157 17.9441 16.732 17.9553 16.7482 17.9645C16.7828 17.9838 16.8174 18.0011 16.853 18.0183C16.8652 18.0244 16.8764 18.0305 16.8886 18.0366C16.9282 18.0549 16.9689 18.0702 17.0096 18.0854C17.0187 18.0885 17.0268 18.0926 17.036 18.0956C17.0787 18.1109 17.1224 18.1231 17.1672 18.1342C17.1753 18.1363 17.1824 18.1383 17.1906 18.1403C17.2343 18.1505 17.278 18.1586 17.3227 18.1658C17.3319 18.1668 17.341 18.1688 17.3502 18.1708C17.3919 18.1769 17.4336 18.18 17.4763 18.182C17.4875 18.182 17.4976 18.1841 17.5078 18.1851C17.5108 18.1851 17.5129 18.1851 17.5149 18.1851C17.5241 18.1851 17.5332 18.1871 17.5424 18.1871C17.6481 18.1881 17.7427 18.1678 17.823 18.1302C17.8281 18.1281 17.8342 18.1261 17.8393 18.1231C17.8586 18.1129 17.8769 18.1017 17.8952 18.0895C17.9054 18.0824 17.9155 18.0773 17.9257 18.0692C17.9399 18.058 17.9511 18.0458 17.9633 18.0336C17.9735 18.0234 17.9847 18.0143 17.9938 18.0031C18.0071 17.9868 18.0182 17.9695 18.0294 17.9523C18.0345 17.9441 18.0406 17.936 18.0457 17.9268C18.0782 17.8679 18.0986 17.8008 18.1057 17.7255C18.1118 17.6645 18.1047 17.6066 18.0894 17.5517C18.0813 17.5212 18.0691 17.4917 18.0548 17.4643L18.0538 17.4622Z" fill="#00C546"/>
<path d="M17.2861 22.5803C17.2648 22.5701 17.2434 22.5609 17.222 22.5518C17.1946 22.5406 17.1671 22.5294 17.1387 22.5193C16.9526 22.4522 16.7523 22.4125 16.5357 22.4023C16.5316 22.4023 16.5286 22.4023 16.5245 22.4034C16.4259 22.4034 16.3344 22.4278 16.255 22.4755C16.1127 22.5559 16.0151 22.6972 15.9988 22.87C15.9734 23.1354 16.1676 23.3773 16.4564 23.4058C16.7584 23.4353 16.9994 23.5451 17.1885 23.7931C17.3003 23.9385 17.461 24.0026 17.6206 23.9893C17.7233 23.9853 17.825 23.9487 17.9145 23.8765C18.1412 23.6925 18.1646 23.3966 17.9653 23.1333C17.7762 22.8832 17.5495 22.7012 17.2851 22.5803H17.2861Z" fill="#00C546"/>
<path d="M29.1585 14.737C29.1503 14.7512 29.1452 14.7665 29.1391 14.7817C29.1361 14.7888 29.1341 14.7959 29.131 14.8031C29.0944 14.9068 29.0954 15.0206 29.1361 15.1314C29.1757 15.2585 29.254 15.3561 29.3689 15.41C29.5113 15.4903 29.6882 15.4984 29.8509 15.409C30.5291 15.0328 31.2053 14.6526 31.8734 14.2581C31.9069 14.2378 31.9415 14.2195 31.9761 14.1992C32.0005 14.1849 32.0228 14.1697 32.0432 14.1534C32.3208 13.944 32.3116 13.5759 32.0391 13.3553C32.0371 13.3533 32.035 13.3523 32.033 13.3513C32.0177 13.3391 32.0025 13.3269 31.9862 13.3167C31.9832 13.3147 31.9791 13.3126 31.9761 13.3096L31.974 13.3086C31.8459 13.2252 31.7107 13.152 31.5439 13.0534C31.8683 12.8978 32.1703 12.7565 32.4662 12.6122C32.5607 12.5674 32.6563 12.5257 32.7458 12.4719C32.8505 12.4078 32.9217 12.3194 32.9624 12.2207C32.9654 12.2146 32.9675 12.2085 32.9705 12.2014C32.9776 12.1811 32.9837 12.1608 32.9878 12.1404C32.9908 12.1282 32.9929 12.116 32.9949 12.1038C32.9969 12.0855 32.998 12.0672 32.998 12.0489C32.998 12.0357 32.999 12.0235 32.998 12.0103C32.9969 11.9859 32.9919 11.9615 32.9868 11.9381C32.9858 11.932 32.9847 11.9249 32.9827 11.9188C32.9736 11.8832 32.9614 11.8476 32.9441 11.8141C32.9136 11.7531 32.8729 11.7012 32.8261 11.6575C32.8231 11.6545 32.82 11.6524 32.8159 11.6504C32.6939 11.5437 32.5292 11.502 32.3635 11.5528C32.3218 11.563 32.2801 11.5762 32.2374 11.5965C31.5724 11.9066 30.9074 12.2197 30.2495 12.5451C30.2129 12.5634 30.1814 12.5837 30.1509 12.605C29.8489 12.7982 29.858 13.2191 30.1671 13.4367C30.2831 13.518 30.4081 13.5881 30.5505 13.6695C30.5962 13.6969 30.644 13.7244 30.6939 13.7549C30.6156 13.8037 30.5576 13.8413 30.5027 13.8748C30.3319 13.9714 30.1661 14.067 30.0034 14.1585C29.8672 14.2358 29.7299 14.313 29.5947 14.3923C29.5255 14.432 29.4554 14.4726 29.3862 14.5123C29.31 14.557 29.2469 14.6099 29.1991 14.6719L29.1971 14.675C29.1818 14.6963 29.1676 14.7177 29.1564 14.741L29.1585 14.737Z" fill="#00C546"/>
<path d="M7.00202 12.0466C7.00202 12.0649 7.00202 12.0832 7.00507 12.1025C7.00711 12.1147 7.00914 12.1269 7.01219 12.1391C7.01626 12.1604 7.02236 12.1808 7.02948 12.2001C7.03151 12.2062 7.03456 12.2123 7.03761 12.2194C7.07828 12.318 7.15048 12.4065 7.25419 12.4705C7.34266 12.5244 7.43925 12.5661 7.5328 12.6108C7.82869 12.7552 8.13069 12.8965 8.45505 13.052C8.2883 13.1507 8.15306 13.2239 8.02494 13.3072L8.02291 13.3082C8.01986 13.3103 8.01579 13.3123 8.01274 13.3154C7.99647 13.3265 7.98122 13.3387 7.96596 13.3499C7.96393 13.3509 7.9619 13.353 7.95986 13.354C7.68736 13.5756 7.67821 13.9426 7.9558 14.1521C7.97715 14.1683 7.99952 14.1836 8.02291 14.1978C8.05646 14.2182 8.09103 14.2365 8.1256 14.2568C8.79365 14.6513 9.46984 15.0315 10.1481 15.4076C10.3107 15.4981 10.4887 15.489 10.63 15.4087C10.7449 15.3548 10.8232 15.2562 10.8629 15.1301C10.9035 15.0193 10.9046 14.9054 10.868 14.8017C10.8659 14.7946 10.8629 14.7875 10.8598 14.7804C10.8537 14.7651 10.8476 14.7509 10.8405 14.7356C10.8283 14.7123 10.8151 14.6909 10.7988 14.6695L10.7968 14.6665C10.75 14.6045 10.687 14.5516 10.6097 14.5069C10.5405 14.4672 10.4704 14.4266 10.4012 14.3869C10.266 14.3076 10.1287 14.2304 9.99248 14.1531C9.83081 14.0606 9.66405 13.966 9.49424 13.8694C9.43933 13.8359 9.38036 13.7973 9.30308 13.7495C9.3529 13.72 9.39968 13.6915 9.44543 13.6651C9.58677 13.5838 9.71184 13.5146 9.82877 13.4323C10.1379 13.2147 10.147 12.7938 9.84504 12.6006C9.81454 12.5793 9.78302 12.559 9.74641 12.5407C9.08853 12.2153 8.42353 11.9022 7.75853 11.5921C7.71583 11.5728 7.67414 11.5586 7.63245 11.5484C7.46772 11.4976 7.30198 11.5393 7.17997 11.646C7.17692 11.6491 7.17285 11.6511 7.1698 11.6531C7.12302 11.6958 7.08235 11.7487 7.05185 11.8097C7.03456 11.8443 7.02236 11.8798 7.01321 11.9144C7.01117 11.9215 7.01117 11.9276 7.00914 11.9337C7.00406 11.9581 6.99999 11.9825 6.99796 12.0059C6.99796 12.0191 6.99796 12.0313 6.99796 12.0435L7.00202 12.0466Z" fill="#00C546"/>
<path d="M12.078 7.5115C12.078 7.53387 12.08 7.55725 12.0841 7.57961C12.0841 7.5847 12.0861 7.5908 12.0871 7.59588C12.0932 7.62536 12.1014 7.65485 12.1125 7.68331C12.1125 7.68535 12.1136 7.68636 12.1146 7.6884C12.1268 7.71788 12.141 7.74635 12.1583 7.7738C12.1613 7.7799 12.1654 7.78498 12.1685 7.79108C12.1735 7.7982 12.1766 7.80531 12.1817 7.81141C12.2224 7.86631 12.2691 7.91816 12.3169 7.96798C12.4705 8.13878 12.6291 8.30754 12.7948 8.48444C12.8833 8.58102 12.9738 8.67862 13.0704 8.78232C12.9362 8.8057 12.8203 8.824 12.7115 8.84332C12.6586 8.85247 12.6067 8.86162 12.5559 8.8728C12.4196 8.90229 12.3139 8.96939 12.2417 9.05682C12.1095 9.21237 12.0881 9.43197 12.2173 9.6353C12.2254 9.64851 12.2325 9.66173 12.2417 9.67495C12.323 9.79288 12.4186 9.90166 12.5071 10.0135C12.5477 10.0643 12.5884 10.1162 12.6291 10.167C12.9534 10.5798 13.2809 10.9915 13.6113 11.3992C13.654 11.4521 13.6967 11.506 13.7394 11.5598C13.7405 11.5619 13.7425 11.5629 13.7445 11.5649C13.7506 11.573 13.7578 11.5812 13.7639 11.5893C13.8777 11.7296 14.0384 11.7947 14.194 11.7855C14.2468 11.7835 14.2977 11.7693 14.3485 11.7499C14.3607 11.7449 14.3739 11.7418 14.3851 11.7357C14.3953 11.7306 14.4044 11.7235 14.4146 11.7174C14.4319 11.7072 14.4502 11.6981 14.4675 11.6849C14.4695 11.6828 14.4716 11.6808 14.4736 11.6788L14.4777 11.6767C14.4858 11.6707 14.4919 11.6625 14.5 11.6554C14.5173 11.6401 14.5356 11.6249 14.5498 11.6076C14.559 11.5975 14.5661 11.5863 14.5743 11.5751C14.5865 11.5588 14.5987 11.5436 14.6078 11.5263C14.6129 11.5171 14.617 11.508 14.621 11.4978C14.6312 11.4765 14.6414 11.4551 14.6485 11.4317C14.6953 11.2833 14.6698 11.1145 14.557 10.9651C14.5539 10.961 14.5509 10.9569 14.5478 10.9529C14.5427 10.9458 14.5397 10.9386 14.5356 10.9325C14.5 10.8837 14.4614 10.838 14.4238 10.7902C14.3017 10.6326 14.1777 10.4781 14.0536 10.3236C13.9245 10.1609 13.7923 9.99316 13.654 9.81931C13.6367 9.79695 13.6195 9.77458 13.6002 9.75018C13.6551 9.74103 13.7069 9.73391 13.7578 9.72578C13.7598 9.72578 13.7618 9.72578 13.7649 9.72476C13.8289 9.71561 13.8899 9.70646 13.9499 9.69731C13.9998 9.6902 14.0476 9.68308 14.0964 9.67698C14.2794 9.65258 14.437 9.58853 14.5336 9.44823C14.6536 9.29065 14.6678 9.07512 14.5437 8.88602C14.5122 8.83519 14.4746 8.78639 14.4299 8.73962C14.3058 8.60949 14.1828 8.47732 14.0598 8.34617C13.8127 8.07778 13.5646 7.8104 13.3144 7.54505C13.2107 7.4322 13.108 7.31732 12.9982 7.20955C12.988 7.19939 12.9779 7.1882 12.9687 7.17804C12.9545 7.1638 12.9402 7.15262 12.926 7.1394C12.924 7.13737 12.9219 7.13534 12.9189 7.1333L12.9158 7.13025C12.8955 7.11297 12.8752 7.09772 12.8548 7.0845C12.8416 7.07535 12.8294 7.06824 12.8162 7.0601C12.802 7.05299 12.7887 7.04587 12.7745 7.03875C12.7572 7.03062 12.7399 7.02452 12.7216 7.01944C12.7084 7.01537 12.6962 7.0113 12.683 7.00825C12.6657 7.00419 12.6484 7.00215 12.6301 7.00012C12.6159 6.99809 12.6016 6.99707 12.5874 6.99707C12.5711 6.99707 12.5559 6.99707 12.5396 6.9991C12.5243 7.00012 12.5091 7.00215 12.4939 7.00419C12.4786 7.00724 12.4634 7.0113 12.4471 7.01639C12.4328 7.02045 12.4186 7.02452 12.4044 7.03062C12.3881 7.03774 12.3718 7.04587 12.3556 7.05502C12.3434 7.06112 12.3312 7.06722 12.32 7.07434C12.3027 7.08552 12.2864 7.09874 12.2702 7.11195C12.262 7.11907 12.2529 7.12415 12.2447 7.13127C12.2427 7.1333 12.2417 7.13534 12.2396 7.13737C12.2376 7.1394 12.2356 7.14042 12.2325 7.14245C12.2193 7.15465 12.2102 7.16888 12.198 7.1821C12.1502 7.23802 12.1156 7.29902 12.0973 7.36408C12.0963 7.36917 12.0932 7.37323 12.0922 7.37832C12.0871 7.3956 12.0851 7.4139 12.0831 7.4322C12.081 7.44643 12.079 7.46067 12.078 7.4749C12.078 7.4871 12.078 7.49828 12.078 7.51048V7.5115Z" fill="#00C546"/>
<path d="M26.2402 9.72793C26.291 9.73505 26.3439 9.74318 26.3988 9.75233C26.3795 9.77673 26.3622 9.7991 26.3449 9.82146C26.2077 9.99531 26.0745 10.162 25.9463 10.3247C25.8213 10.4792 25.6972 10.6348 25.5762 10.7924C25.5386 10.8391 25.5 10.8859 25.4644 10.9347C25.4593 10.9418 25.4562 10.9489 25.4522 10.955C25.4491 10.9591 25.4461 10.9632 25.443 10.9672C25.3312 11.1177 25.3047 11.2865 25.3515 11.4339C25.3586 11.4562 25.3688 11.4776 25.379 11.5C25.383 11.5091 25.3871 11.5193 25.3922 11.5284C25.4023 11.5457 25.4145 11.561 25.4257 11.5762C25.4339 11.5874 25.441 11.5986 25.4501 11.6087C25.4654 11.626 25.4827 11.6413 25.5 11.6565C25.5081 11.6636 25.5142 11.6708 25.5223 11.6779L25.5264 11.6799C25.5284 11.6819 25.5305 11.684 25.5325 11.686C25.5488 11.6982 25.5671 11.7074 25.5854 11.7185C25.5955 11.7246 25.6047 11.7318 25.6149 11.7368C25.6271 11.7429 25.6393 11.746 25.6515 11.7511C25.7013 11.7714 25.7531 11.7846 25.806 11.7867C25.9626 11.7958 26.1222 11.7307 26.2361 11.5904C26.2422 11.5823 26.2493 11.5742 26.2554 11.5661C26.2565 11.564 26.2585 11.563 26.2605 11.561C26.3032 11.5081 26.3459 11.4542 26.3886 11.4003C26.7191 10.9927 27.0465 10.5809 27.3709 10.1681C27.4116 10.1173 27.4522 10.0655 27.4929 10.0146C27.5824 9.90178 27.677 9.79401 27.7583 9.67608C27.7675 9.66286 27.7746 9.64965 27.7827 9.63643C27.9118 9.43412 27.8905 9.2135 27.7583 9.05795C27.6861 8.97052 27.5804 8.90342 27.4441 8.87394C27.3933 8.86275 27.3414 8.8536 27.2885 8.84445C27.1797 8.82514 27.0648 8.80684 26.9296 8.78345C27.0252 8.67976 27.1157 8.58114 27.2052 8.48557C27.3709 8.30969 27.5295 8.13991 27.6841 7.96911C27.7319 7.91929 27.7786 7.86745 27.8193 7.81255C27.8244 7.80543 27.8274 7.79831 27.8325 7.79221C27.8366 7.78611 27.8396 7.78103 27.8427 7.77493C27.86 7.74646 27.8752 7.718 27.8864 7.68953C27.8864 7.6875 27.8874 7.68648 27.8885 7.68445C27.8996 7.65598 27.9088 7.6265 27.9139 7.59702C27.9149 7.59092 27.9159 7.58583 27.9169 7.58075C27.921 7.55838 27.922 7.535 27.923 7.51263C27.923 7.50043 27.924 7.48925 27.923 7.47705C27.923 7.46282 27.92 7.44858 27.9179 7.43435C27.9159 7.41605 27.9129 7.39775 27.9088 7.38047C27.9078 7.37538 27.9057 7.37132 27.9037 7.36725C27.8844 7.30218 27.8508 7.24118 27.802 7.18527C27.7908 7.17205 27.7807 7.15884 27.7685 7.14664C27.7664 7.1446 27.7644 7.14359 27.7614 7.14155C27.7593 7.13952 27.7583 7.13749 27.7563 7.13545C27.7481 7.12834 27.739 7.12325 27.7308 7.11614C27.7146 7.10292 27.6983 7.0897 27.681 7.07852C27.6698 7.0714 27.6576 7.0653 27.6454 7.0592C27.6292 7.05107 27.6129 7.04192 27.5966 7.0348C27.5824 7.0287 27.5682 7.02565 27.5539 7.02057C27.5387 7.0165 27.5234 7.01142 27.5082 7.00837C27.4929 7.00532 27.4777 7.0043 27.4624 7.00329C27.4461 7.00227 27.4309 7.00024 27.4146 7.00125C27.4004 7.00125 27.3861 7.00329 27.3719 7.0043C27.3546 7.00634 27.3373 7.00837 27.319 7.01244C27.3058 7.01549 27.2936 7.01955 27.2804 7.02362C27.2631 7.0287 27.2448 7.03582 27.2275 7.04294C27.2133 7.04904 27.1991 7.05615 27.1858 7.06429C27.1726 7.0714 27.1594 7.07954 27.1472 7.08869C27.1269 7.1019 27.1065 7.11817 27.0862 7.13444C27.0862 7.13444 27.0842 7.13647 27.0821 7.13749C27.0801 7.13952 27.0781 7.14155 27.075 7.1446C27.0608 7.1568 27.0455 7.16799 27.0323 7.18324C27.0221 7.1934 27.012 7.20459 27.0028 7.21475C26.893 7.32252 26.7913 7.43638 26.6866 7.55025C26.4364 7.8156 26.1883 8.08196 25.9413 8.35036C25.8182 8.48252 25.6952 8.61367 25.5711 8.74482C25.5264 8.79159 25.4888 8.84039 25.4572 8.89122C25.3322 9.08032 25.3464 9.29585 25.4674 9.45241C25.564 9.59271 25.7216 9.65676 25.9046 9.68116C25.9524 9.68726 26.0012 9.69438 26.0501 9.7015C26.11 9.71065 26.1711 9.7198 26.2351 9.72895C26.2371 9.72895 26.2392 9.72895 26.2412 9.72895L26.2402 9.72793Z" fill="#00C546"/>
<path d="M10.385 24.7832C10.389 24.7751 10.3931 24.7679 10.3972 24.7598C10.4033 24.7476 10.4074 24.7344 10.4114 24.7212C10.4389 24.6439 10.446 24.5616 10.4307 24.4782C10.3962 24.2484 10.2111 24.0776 9.9996 24.0532C9.99554 24.0532 9.99147 24.0532 9.9874 24.0522C9.96198 24.0502 9.93554 24.0492 9.91012 24.0522C9.8969 24.0522 9.88369 24.0563 9.87047 24.0583C9.8603 24.0604 9.85013 24.0614 9.83895 24.0644C9.79624 24.0736 9.75455 24.0878 9.71286 24.1102C9.57559 24.1844 9.43934 24.2596 9.30308 24.3348C8.9655 24.5189 8.62995 24.709 8.29847 24.9042C8.15306 24.9886 8.00868 25.075 7.86429 25.1614C7.8226 25.1868 7.78701 25.2163 7.75651 25.2488C7.74837 25.258 7.74125 25.2671 7.73312 25.2763C7.72905 25.2814 7.72498 25.2864 7.72092 25.2915C7.62737 25.4166 7.60907 25.5762 7.65889 25.7226C7.66194 25.7317 7.66499 25.7409 7.66804 25.749C7.66804 25.7511 7.67008 25.7531 7.67109 25.7561C7.7077 25.8466 7.77074 25.931 7.86022 25.9951C7.93852 26.052 8.0219 26.1018 8.12053 26.1679C7.9314 26.2584 7.75549 26.3417 7.58365 26.4241C7.52874 26.4495 7.47383 26.4769 7.41994 26.5034C7.41282 26.5064 7.4057 26.5105 7.39859 26.5135C7.3935 26.5156 7.38943 26.5186 7.38537 26.5207C7.35588 26.5359 7.32538 26.5491 7.29589 26.5654C7.15048 26.6437 7.05694 26.7606 7.01931 26.8907C7.01321 26.91 7.00813 26.9294 7.00508 26.9497C7.00508 26.9558 7.00304 26.9609 7.00203 26.967C6.99898 26.9934 6.99796 27.0209 6.99898 27.0473C6.99898 27.0534 6.99898 27.0595 6.99999 27.0656C7.00203 27.089 7.0061 27.1134 7.0122 27.1378C7.01525 27.151 7.01931 27.1642 7.0244 27.1774C7.02847 27.1886 7.03253 27.1998 7.03762 27.211C7.0427 27.2242 7.04575 27.2374 7.05287 27.2506C7.07015 27.2852 7.09049 27.3167 7.11388 27.3452C7.14642 27.3879 7.18505 27.4214 7.22674 27.4489C7.23488 27.454 7.24301 27.4611 7.25115 27.4651C7.26132 27.4712 7.2725 27.4753 7.28369 27.4804C7.41181 27.5424 7.56636 27.5495 7.72295 27.4784C7.73312 27.4733 7.7443 27.4682 7.75447 27.4641C7.77888 27.455 7.80328 27.4468 7.8287 27.4346C7.91005 27.396 7.99139 27.3574 8.07172 27.3187C8.41642 27.1601 8.75909 26.9985 9.0987 26.8307C9.18615 26.7901 9.27258 26.7474 9.36104 26.7067C9.42002 26.6793 9.47391 26.6488 9.5217 26.6142C9.71388 26.4851 9.77997 26.2736 9.72303 26.0784C9.68744 25.9341 9.58881 25.8283 9.45459 25.747C9.37426 25.6931 9.28681 25.6423 9.18107 25.5762C9.19734 25.567 9.21259 25.5579 9.22886 25.5487C9.50136 25.3922 9.75963 25.2488 10.0087 25.1004C10.0504 25.077 10.0921 25.0526 10.1338 25.0292C10.2192 24.9814 10.2884 24.9235 10.3402 24.8564C10.3433 24.8533 10.3453 24.8493 10.3473 24.8462C10.3616 24.8269 10.3748 24.8056 10.386 24.7842L10.385 24.7832Z" fill="#00C546"/>
<path d="M32.9847 27.136C32.9908 27.1116 32.9949 27.0883 32.9969 27.0639C32.9969 27.0578 32.998 27.0517 32.998 27.0456C33 27.0181 32.998 26.9917 32.9949 26.9652C32.9949 26.9591 32.9929 26.9541 32.9919 26.948C32.9888 26.9276 32.9837 26.9083 32.9776 26.889C32.939 26.7589 32.8454 26.643 32.701 26.5637C32.6716 26.5474 32.6421 26.5342 32.6116 26.5189C32.6065 26.5169 32.6024 26.5139 32.5983 26.5118C32.5912 26.5088 32.5841 26.5047 32.577 26.5017C32.5221 26.4752 32.4682 26.4478 32.4133 26.4224C32.2414 26.34 32.0655 26.2566 31.8764 26.1662C31.975 26.1011 32.0584 26.0503 32.1367 25.9933C32.2262 25.9283 32.2892 25.8449 32.3258 25.7544C32.3258 25.7524 32.3279 25.7503 32.3289 25.7473C32.3319 25.7381 32.335 25.73 32.338 25.7209C32.3879 25.5734 32.3696 25.4138 32.276 25.2888C32.272 25.2837 32.2679 25.2796 32.2638 25.2745C32.2567 25.2654 32.2496 25.2562 32.2404 25.2471C32.2099 25.2146 32.1743 25.1851 32.1326 25.1597C31.9883 25.0722 31.8439 24.9868 31.6985 24.9024C31.367 24.7073 31.0314 24.5171 30.6939 24.3331C30.5576 24.2579 30.4213 24.1827 30.2841 24.1084C30.2434 24.0861 30.2007 24.0729 30.158 24.0627C30.1478 24.0607 30.1377 24.0586 30.1265 24.0566C30.1132 24.0546 30.1 24.0515 30.0868 24.0505C30.0604 24.0485 30.035 24.0495 30.0095 24.0505C30.0055 24.0505 30.0014 24.0505 29.9973 24.0515C29.7858 24.0759 29.6008 24.2467 29.5662 24.4765C29.5509 24.5588 29.5581 24.6412 29.5855 24.7184C29.5896 24.7317 29.5947 24.7449 29.5998 24.7581C29.6038 24.7662 29.6079 24.7733 29.612 24.7815C29.6231 24.8028 29.6353 24.8231 29.6506 24.8435C29.6526 24.8465 29.6557 24.8506 29.6577 24.8536C29.7096 24.9207 29.7787 24.9787 29.8641 25.0265C29.9058 25.0499 29.9475 25.0732 29.9892 25.0976C30.2383 25.2461 30.4966 25.3894 30.7691 25.546C30.7854 25.5551 30.8006 25.5643 30.8169 25.5734C30.7111 25.6395 30.6237 25.6904 30.5434 25.7442C30.4091 25.8256 30.3105 25.9313 30.2749 26.0757C30.218 26.2709 30.2831 26.4823 30.4763 26.6114C30.524 26.646 30.5779 26.6765 30.6369 26.704C30.7244 26.7446 30.8118 26.7863 30.8992 26.828C31.2389 26.9957 31.5815 27.1574 31.9262 27.316C32.0076 27.3546 32.0879 27.3943 32.1693 27.4319C32.1947 27.4441 32.2191 27.4522 32.2435 27.4614C32.2536 27.4665 32.2648 27.4715 32.275 27.4756C32.4306 27.5468 32.5861 27.5407 32.7143 27.4776C32.7255 27.4726 32.7366 27.4685 32.7468 27.4624C32.7549 27.4573 32.7631 27.4512 32.7712 27.4461C32.8129 27.4187 32.8515 27.3851 32.8841 27.3424C32.9064 27.314 32.9278 27.2824 32.9451 27.2479C32.9512 27.2347 32.9553 27.2214 32.9603 27.2082C32.9654 27.197 32.9695 27.1859 32.9736 27.1747C32.9776 27.1615 32.9827 27.1482 32.9858 27.135L32.9847 27.136Z" fill="#00C546"/>
<path d="M27.0069 32.6058C27.0069 32.6058 27.0079 32.5966 27.0089 32.5915C27.0374 32.4441 27.0008 32.2845 26.891 32.1523C26.8726 32.13 26.8533 32.1086 26.834 32.0863L26.832 32.0832C26.8299 32.0812 26.8279 32.0781 26.8249 32.0761C26.6937 31.9256 26.5534 31.7792 26.3988 31.6094C26.8015 31.5149 26.9916 31.3177 26.9692 31.0615C26.9692 31.0544 26.9692 31.0472 26.9682 31.0401C26.9682 31.034 26.9662 31.0289 26.9652 31.0228C26.9469 30.908 26.8879 30.7819 26.7852 30.6528C26.7822 30.6487 26.7791 30.6446 26.775 30.6406C26.5412 30.3447 26.3073 30.0489 26.0704 29.7551C25.9717 29.632 25.8752 29.508 25.7765 29.385C25.6423 29.2172 25.4786 29.1298 25.319 29.1258C25.1756 29.1176 25.0464 29.1756 24.9468 29.2945C24.8939 29.3514 24.8563 29.4155 24.838 29.4846C24.838 29.4867 24.837 29.4877 24.836 29.4897C24.836 29.4917 24.836 29.4928 24.8349 29.4948C24.7882 29.6412 24.8166 29.7906 24.9204 29.9309C24.9295 29.9431 24.9387 29.9543 24.9478 29.9665C24.96 29.9848 24.9702 30.0031 24.9844 30.0214C25.1441 30.2288 25.3068 30.4332 25.4674 30.6396C25.4715 30.6457 25.4715 30.6548 25.4776 30.6833C25.4745 30.6843 25.4705 30.6863 25.4684 30.6873C25.4196 30.6985 25.3698 30.7097 25.32 30.7219C25.1603 30.7494 25.0261 30.8144 24.9397 30.9466C24.8207 31.1082 24.8055 31.3268 24.9366 31.5037C24.9753 31.5657 25.0231 31.6247 25.078 31.6826C25.1613 31.7701 25.2417 31.8595 25.324 31.947C25.501 32.1422 25.6799 32.3353 25.8619 32.5265C25.9392 32.6098 26.0165 32.6942 26.0948 32.7776C26.1273 32.8122 26.1599 32.8416 26.1934 32.8681C26.3053 32.9748 26.4446 33.0145 26.5788 32.9962C26.6032 32.9931 26.6266 32.987 26.651 32.9799C26.6632 32.9768 26.6754 32.9728 26.6876 32.9687C26.7028 32.9626 26.7161 32.9555 26.7313 32.9484C26.7466 32.9413 26.7618 32.9342 26.7771 32.924C26.7923 32.9148 26.8066 32.9026 26.8218 32.8915C26.833 32.8833 26.8442 32.8772 26.8543 32.8671C26.8564 32.866 26.8574 32.864 26.8584 32.862L26.8625 32.8589C26.8747 32.8477 26.8838 32.8355 26.894 32.8233C26.9408 32.7715 26.9743 32.7135 26.9947 32.6515C26.9998 32.6363 27.0059 32.62 27.0099 32.6037L27.0069 32.6058Z" fill="#00C546"/>
<path d="M26.6368 20.8663C26.6368 20.8663 26.6398 20.8571 26.6418 20.8531C26.6673 20.7972 26.6835 20.7372 26.6866 20.6721C26.6886 20.6365 26.6866 20.602 26.6805 20.5674C26.6774 20.5501 26.6723 20.5349 26.6683 20.5186C26.6642 20.5054 26.6622 20.4922 26.6581 20.4789C26.649 20.4535 26.6368 20.4301 26.6235 20.4078C26.6215 20.4037 26.6195 20.3996 26.6174 20.3956C26.6073 20.3793 26.594 20.3641 26.5818 20.3488C26.5737 20.3386 26.5656 20.3275 26.5564 20.3173C26.5524 20.3122 26.5463 20.3081 26.5422 20.3041C26.4588 20.2207 26.3439 20.1628 26.2087 20.1465C26.0531 20.1272 25.925 20.0936 25.8172 20.0438C25.7867 20.0286 25.7562 20.0143 25.7287 19.996C25.7267 19.995 25.7257 19.994 25.7237 19.993C25.6118 19.9167 25.5274 19.814 25.4705 19.6829C25.4623 19.6646 25.4552 19.6453 25.4491 19.626C25.443 19.6087 25.4369 19.5894 25.4318 19.5711C25.4196 19.5273 25.4084 19.4806 25.3993 19.4318C25.3983 19.4247 25.3973 19.4175 25.3952 19.4104C25.3912 19.383 25.3871 19.3555 25.383 19.3261C25.3688 19.202 25.319 19.0943 25.2468 19.0119C25.1573 18.9052 25.0312 18.8431 24.8858 18.8421C24.8777 18.8421 24.8705 18.8401 24.8624 18.8411H24.8604C24.8583 18.8411 24.8573 18.8411 24.8553 18.8411C24.836 18.8411 24.8167 18.8462 24.7983 18.8503C24.7851 18.8523 24.7709 18.8533 24.7587 18.8564C24.7373 18.8614 24.717 18.8696 24.6967 18.8777C24.6865 18.8818 24.6753 18.8848 24.6662 18.8889C24.6468 18.898 24.6285 18.9102 24.6113 18.9214C24.6021 18.9275 24.5919 18.9326 24.5828 18.9397C24.5685 18.9509 24.5563 18.9631 24.5431 18.9753C24.5319 18.9865 24.5197 18.9967 24.5086 19.0089C24.5004 19.018 24.4943 19.0282 24.4872 19.0373C24.473 19.0556 24.4597 19.0739 24.4475 19.0943C24.4445 19.0993 24.4425 19.1044 24.4404 19.1085C24.4262 19.1349 24.414 19.1624 24.4038 19.1919L24.4028 19.1959C24.3916 19.2285 24.3835 19.261 24.3784 19.2966C24.3784 19.3017 24.3784 19.3057 24.3774 19.3108C24.3743 19.3342 24.3703 19.3576 24.3703 19.383C24.3703 19.3911 24.3703 19.3982 24.3703 19.4064C24.3703 19.4094 24.3703 19.4125 24.3703 19.4155C24.3703 19.4267 24.3723 19.4389 24.3723 19.4501C24.3784 19.6656 24.4303 19.8761 24.5187 20.0723C24.5197 20.0753 24.5218 20.0784 24.5228 20.0814C24.5441 20.1272 24.5665 20.1729 24.5919 20.2177C24.6092 20.2492 24.6296 20.2787 24.6489 20.3092C24.659 20.3244 24.6682 20.3407 24.6784 20.3569C24.84 20.5928 25.0566 20.7931 25.3057 20.9344C25.5477 21.0727 25.8192 21.154 26.0989 21.1601C26.105 21.1601 26.1111 21.1611 26.1172 21.1611H26.1202C26.1253 21.1611 26.1314 21.1611 26.1365 21.1611C26.166 21.1611 26.1944 21.1571 26.2219 21.154C26.226 21.154 26.23 21.154 26.2331 21.153C26.2676 21.1479 26.3002 21.1398 26.3317 21.1286C26.3337 21.1286 26.3368 21.1276 26.3388 21.1266C26.3673 21.1164 26.3937 21.1042 26.4192 21.09C26.4242 21.0869 26.4293 21.0859 26.4344 21.0828C26.4547 21.0706 26.472 21.0574 26.4903 21.0432C26.4985 21.0361 26.5086 21.031 26.5168 21.0239C26.529 21.0137 26.5381 21.0005 26.5493 20.9893C26.5686 20.969 26.5869 20.9466 26.6022 20.9222C26.6134 20.9049 26.6256 20.8876 26.6347 20.8683L26.6368 20.8663Z" fill="#00C546"/>
<path d="M24.111 16.6795C24.113 16.6602 24.113 16.6409 24.1151 16.6206C24.1171 16.588 24.1201 16.5565 24.1212 16.524C24.1212 16.5209 24.1212 16.5189 24.1212 16.5158C24.1212 16.5128 24.1212 16.5108 24.1212 16.5077C24.1212 16.4803 24.1181 16.4548 24.1151 16.4294C24.1151 16.4223 24.1151 16.4142 24.113 16.4071C24.1029 16.3349 24.0825 16.2688 24.051 16.2119C24.0398 16.1915 24.0266 16.1732 24.0134 16.1559C23.9392 16.0543 23.8283 15.9882 23.691 15.9699C23.6829 15.9689 23.6758 15.9668 23.6687 15.9658H23.6666C23.6646 15.9658 23.6626 15.9658 23.6605 15.9648C23.6412 15.9638 23.6239 15.9648 23.6046 15.9648C23.5914 15.9648 23.5772 15.9648 23.5639 15.9648C23.5446 15.9668 23.5263 15.9709 23.508 15.975C23.4948 15.978 23.4816 15.979 23.4694 15.9831C23.4521 15.9882 23.4368 15.9953 23.4206 16.0024C23.4074 16.0075 23.3941 16.0126 23.3819 16.0187C23.3697 16.0258 23.3585 16.0339 23.3463 16.0421C23.3311 16.0522 23.3158 16.0614 23.3016 16.0736C23.2955 16.0787 23.2894 16.0858 23.2833 16.0919C23.265 16.1092 23.2477 16.1265 23.2325 16.1458C23.2325 16.1458 23.2304 16.1488 23.2294 16.1509C23.1755 16.221 23.1348 16.3064 23.1155 16.4081C23.0738 16.6246 23.0352 16.7731 22.9742 16.8788C22.9234 16.9601 22.8573 17.0201 22.7688 17.0658C22.6691 17.1136 22.538 17.1462 22.3549 17.1807C22.2146 17.2072 22.1007 17.2712 22.0214 17.3576C22.0174 17.3617 22.0133 17.3647 22.0092 17.3688C21.997 17.383 21.9879 17.3983 21.9777 17.4135C21.9696 17.4257 21.9604 17.4369 21.9533 17.4491C21.9513 17.4532 21.9503 17.4573 21.9482 17.4613C21.934 17.4888 21.9218 17.5183 21.9137 17.5488C21.8984 17.6037 21.8913 17.6616 21.8974 17.7226C21.9045 17.7978 21.9259 17.8649 21.9574 17.9239C21.9625 17.9331 21.9686 17.9402 21.9736 17.9493C21.9848 17.9666 21.996 17.9849 22.0092 18.0002C22.0184 18.0113 22.0296 18.0205 22.0397 18.0307C22.0519 18.0429 22.0641 18.0551 22.0774 18.0662C22.0865 18.0734 22.0977 18.0795 22.1068 18.0866C22.1251 18.0988 22.1424 18.11 22.1628 18.1201C22.1679 18.1232 22.174 18.1242 22.179 18.1272C22.2594 18.1638 22.3539 18.1852 22.4597 18.1842C22.4688 18.1842 22.478 18.1821 22.4871 18.1821C22.4902 18.1821 22.4922 18.1821 22.4943 18.1821C22.5054 18.1821 22.5156 18.1801 22.5258 18.1791C22.5685 18.1771 22.6102 18.174 22.6519 18.1679C22.661 18.1669 22.6702 18.1649 22.6793 18.1628C22.7241 18.1557 22.7688 18.1476 22.8115 18.1374C22.8196 18.1354 22.8268 18.1333 22.8349 18.1313C22.8786 18.1201 22.9223 18.1079 22.9661 18.0927C22.9752 18.0896 22.9833 18.0856 22.9925 18.0825C23.0332 18.0673 23.0738 18.052 23.1135 18.0337C23.1257 18.0286 23.1369 18.0215 23.1491 18.0154C23.1847 17.9981 23.2203 17.9808 23.2538 17.9615C23.2711 17.9524 23.2864 17.9412 23.3026 17.931C23.3311 17.9137 23.3596 17.8965 23.387 17.8771C23.4094 17.8619 23.4307 17.8436 23.4521 17.8273C23.4724 17.8121 23.4928 17.7968 23.5121 17.7806C23.5406 17.7562 23.567 17.7307 23.5944 17.7053C23.6056 17.6941 23.6178 17.685 23.629 17.6738C23.6636 17.6382 23.6971 17.6016 23.7287 17.564C23.7307 17.561 23.7338 17.5589 23.7358 17.5559C23.872 17.3902 23.9788 17.199 24.0449 16.9937C24.0469 16.9855 24.049 16.9774 24.051 16.9693C24.0642 16.9266 24.0764 16.8829 24.0856 16.8381C24.0886 16.8219 24.0907 16.8046 24.0937 16.7883C24.1008 16.7517 24.1069 16.7151 24.111 16.6775V16.6795Z" fill="#00C546"/>
</g>
</g>
</g>
<defs>
<clipPath id="clip0_1_30">
<rect width="40" height="40" fill="white"/>
</clipPath>
<clipPath id="clip1_1_30">
<rect width="26" height="26" fill="white" transform="translate(7 7)"/>
</clipPath>
</defs>
</svg>
