<svg width="40" height="40" viewBox="0 0 40 40" fill="none" xmlns="http://www.w3.org/2000/svg">
<circle cx="20" cy="20" r="20" fill="#FF0000" fill-opacity="0.08"/>
<g clip-path="url(#clip0_51_56)">
<path d="M19.9784 13.0209C20.4131 12.6109 20.8103 12.171 21.2741 11.8097C23.8795 9.78099 27.3365 9.96345 29.7551 12.246C31.0677 13.4843 31.7784 15.0054 31.9568 16.7568C32.1812 18.9562 31.5061 20.9415 30.3485 22.8013C29.2237 24.6087 27.7327 26.1072 26.0606 27.4494C24.3086 28.8549 22.397 30.03 20.4037 31.0886C20.1446 31.2259 19.8892 31.2431 19.6254 31.1031C17.3617 29.9045 15.2041 28.5577 13.2728 26.8966C11.5284 25.3963 10.0271 23.7109 9.01682 21.6596C8.32016 20.2451 7.92395 18.7629 8.0122 17.1921C8.14177 14.8825 9.09662 12.9658 11.0692 11.5893C13.6615 9.78189 16.9843 10.0619 19.2461 12.2532C19.5043 12.5034 19.7427 12.7725 19.9784 13.0209ZM10.5153 21.4835C10.5735 21.5937 10.6064 21.6605 10.643 21.7255C11.3838 23.0289 12.3443 24.1688 13.4437 25.2049C15.3384 26.9888 17.5147 28.4024 19.8113 29.6561C19.9512 29.7319 20.0545 29.7401 20.1906 29.6561C21.3473 28.9443 22.5359 28.2768 23.6607 27.5217C25.4493 26.3195 27.0595 24.9212 28.3618 23.2222C29.618 21.5837 30.4921 19.7944 30.5682 17.7196C30.6377 15.8255 29.9757 14.2096 28.481 12.9496C26.9243 11.6381 24.7874 11.3906 23.0251 12.2965C22.012 12.8177 21.2703 13.6071 20.6619 14.5285C20.2873 15.0966 19.7352 15.0831 19.3343 14.5375C18.9888 14.0669 18.6348 13.59 18.2114 13.1871C17.0312 12.0635 15.6097 11.5405 13.9432 11.8377C12.1368 12.1601 10.8796 13.2034 10.074 14.7543C9.1877 16.4614 9.27783 18.2227 9.86745 19.9913C9.88811 20.0536 10.0083 20.1223 10.0834 20.1241C10.6608 20.1349 11.2392 20.1241 11.8175 20.134C11.9837 20.1367 12.0645 20.0816 12.1358 19.9407C12.5189 19.1856 12.9151 18.4359 13.3038 17.6835C13.409 17.4794 13.5507 17.3195 13.7883 17.2581C14.146 17.1659 14.454 17.3141 14.6445 17.6799C15.3853 19.1025 16.1233 20.526 16.8632 21.9486C16.8988 22.0164 16.9392 22.0823 16.9908 22.1708C17.0462 22.0715 17.0875 22.0001 17.1251 21.927C17.8509 20.5305 18.5794 19.1359 19.2986 17.7368C19.4489 17.4451 19.647 17.231 20.0056 17.2337C20.3633 17.2355 20.5596 17.4541 20.707 17.7458C21.076 18.4739 21.4628 19.1946 21.8299 19.9236C21.9097 20.0807 22.0017 20.1358 22.1857 20.1349C23.7086 20.1268 25.2325 20.1286 26.7553 20.1313C27.2304 20.1322 27.5506 20.4158 27.544 20.8142C27.5374 21.2035 27.2173 21.4817 26.76 21.4826C25.0419 21.4853 23.3227 21.4817 21.6046 21.4853C21.2356 21.4853 20.9868 21.3353 20.8272 21.0138C20.5924 20.5396 20.3418 20.0726 20.0958 19.6038C20.0704 19.5559 20.0338 19.5126 19.9906 19.4503C19.9371 19.5505 19.8967 19.6228 19.8592 19.6959C19.1296 21.0987 18.4048 22.5041 17.6631 23.9015C17.5767 24.065 17.4255 24.2293 17.2603 24.3143C16.9082 24.4967 16.527 24.3251 16.3223 23.9322C15.5806 22.5105 14.8417 21.0869 14.1009 19.6643C14.0643 19.5948 14.0268 19.5261 13.9732 19.4286C13.6981 19.957 13.4259 20.4474 13.1864 20.9515C13.0034 21.3362 12.7217 21.5024 12.2832 21.4889C11.7067 21.4717 11.1293 21.4844 10.5134 21.4844L10.5153 21.4835Z" fill="#FF0000"/>
</g>
<defs>
<clipPath id="clip0_51_56">
<rect width="24" height="20.8" fill="white" transform="translate(8 10.3999)"/>
</clipPath>
</defs>
</svg>
