<svg width="40" height="40" viewBox="0 0 40 40" fill="none" xmlns="http://www.w3.org/2000/svg">
<circle cx="20" cy="20" r="20" fill="#AA00AD" fill-opacity="0.07"/>
<g clip-path="url(#clip0_51_84)">
<path d="M23.142 21.7029C23.142 21.8654 23.1476 22.0761 23.141 22.2859C23.1288 22.6421 23.0078 22.781 22.655 22.8283C22.168 22.8925 21.6792 22.9445 21.1904 23.0021C21.1313 23.0087 21.0721 23.0182 20.9652 23.0324C21.0506 23.1023 21.0975 23.1467 21.151 23.1835C21.5741 23.4783 21.9963 23.776 22.4242 24.0651C22.61 24.1908 22.6963 24.3486 22.686 24.5791C22.6588 25.1526 22.6447 25.7262 22.6259 26.2997C22.6081 26.8402 22.2863 27.1614 21.8368 27.3721C21.1904 27.6745 20.4942 27.7284 19.7989 27.6943C19.2491 27.6669 18.7021 27.5687 18.1485 27.5006C18.0734 27.7803 18.1213 28.0335 18.445 28.1819C18.5501 28.2301 18.6373 28.3151 18.7349 28.3803C18.901 28.4909 18.9685 28.6477 18.9573 28.8433C18.9057 29.7145 18.8569 30.5856 18.8006 31.4559C18.7668 31.9755 18.4985 32.1258 18.0265 31.8933C16.9259 31.3529 15.8272 30.8115 14.7276 30.2701C12.8782 29.3601 11.0298 28.4493 9.18051 27.5394C8.76016 27.3325 8.70105 27.1784 8.83992 26.7325C8.99755 26.227 9.23962 25.7706 9.63557 25.4219C10.0794 25.0308 10.2623 24.5328 10.3027 23.9668C10.3308 23.5672 10.3712 23.1627 10.3374 22.7668C10.313 22.4796 10.206 22.1876 10.0831 21.9231C9.61493 20.914 9.07073 19.937 8.65414 18.9071C7.82002 16.8444 7.76278 14.7449 8.61098 12.6643C9.24056 11.1166 10.4125 10.1292 11.9456 9.55853C13.3783 9.02562 14.8627 8.92735 16.3742 9.04357C17.0667 9.09743 17.7629 9.08326 18.4562 9.1305C19.6713 9.2127 20.8882 9.30908 22.0404 9.74655C22.3623 9.86844 22.6681 10.0593 22.9477 10.2643C23.3906 10.5884 23.37 11.0798 23.2517 11.5342C23.1148 12.0624 22.9158 12.5774 22.7047 13.081C22.5612 13.4249 22.5077 13.7178 22.6803 14.0844C22.9468 14.6504 22.9111 15.2788 22.8961 15.8929C22.8896 16.1679 22.8445 16.4447 22.8652 16.7169C22.883 16.9597 22.9121 17.2309 23.0303 17.4321C23.4872 18.2088 23.9864 18.959 24.4584 19.7272C24.5925 19.9455 24.7136 20.1789 24.7924 20.4217C24.935 20.8648 24.7605 21.2777 24.3223 21.4403C23.9714 21.5706 23.5858 21.6084 23.142 21.7029ZM17.958 30.8785C17.9852 30.4326 17.9787 30.0282 18.0434 29.636C18.1232 29.1485 17.9946 28.8121 17.5339 28.6071C17.32 28.5117 17.2478 28.3142 17.2515 28.0808C17.2571 27.7113 17.2515 27.3419 17.2534 26.9725C17.2562 26.4774 17.5039 26.3016 17.9637 26.4613C18.7002 26.7173 19.4574 26.8714 20.238 26.8118C20.6377 26.7816 21.0346 26.6833 21.4268 26.587C21.6511 26.5322 21.7618 26.3715 21.7561 26.1136C21.7477 25.7215 21.7693 25.3274 21.7955 24.9353C21.8068 24.7662 21.7561 24.6651 21.6154 24.5697C20.923 24.1001 20.239 23.6172 19.5484 23.1448C19.3542 23.0116 19.2453 22.8453 19.3091 22.6081C19.3673 22.3908 19.5324 22.3067 19.7473 22.2821C20.5223 22.1961 21.2964 22.0969 22.0723 22.0166C22.2309 21.9996 22.2928 21.9467 22.291 21.7889C22.2891 21.5848 22.2947 21.3798 22.3107 21.1766C22.3379 20.8374 22.5405 20.6721 22.8755 20.7033C22.9449 20.7099 23.0144 20.7297 23.0838 20.7316C23.3756 20.7363 23.6721 20.7817 23.9836 20.6418C23.8916 20.484 23.8175 20.348 23.7349 20.2185C23.3033 19.5458 22.8699 18.874 22.4364 18.2022C22.0658 17.6287 21.9166 17.0126 21.9851 16.321C22.032 15.8476 21.9963 15.3647 21.9757 14.8866C21.9682 14.7109 21.9372 14.5153 21.8509 14.367C21.5535 13.8548 21.6389 13.3626 21.8509 12.8552C22.0348 12.4149 22.2253 11.9746 22.3613 11.5182C22.5368 10.9295 22.4336 10.7812 21.8509 10.5894C20.7813 10.2379 19.6732 10.1122 18.5604 10.0329C17.7816 9.9771 16.9991 9.98183 16.2213 9.9223C14.995 9.82876 13.7865 9.89868 12.608 10.2662C11.4605 10.6243 10.4556 11.2139 9.80633 12.2675C8.95908 13.6422 8.76298 15.1569 8.97409 16.7367C9.11014 17.759 9.46387 18.7143 9.91236 19.6346C10.2492 20.3253 10.6264 20.9962 10.9416 21.6963C11.0899 22.0242 11.1706 22.3955 11.2137 22.7555C11.255 23.0957 11.2119 23.4462 11.1969 23.792C11.1574 24.6868 10.905 25.4833 10.207 26.1022C10.0006 26.2855 9.87201 26.5577 9.69093 26.8118C12.471 28.18 15.1939 29.5208 17.958 30.8814V30.8785Z" fill="#AA00AD"/>
<path d="M23.9168 23.9762V23.0947H24.1946C26.0364 23.0947 27.8782 23.0966 29.72 23.0947C30.3853 23.0947 30.8816 22.7432 31.0608 22.1611C31.302 21.3769 30.7756 20.5605 29.9659 20.4642C29.8889 20.4547 29.8092 20.4538 29.7341 20.4349C29.4977 20.3782 29.3513 20.1722 29.3851 19.952C29.4188 19.7272 29.6112 19.5694 29.8495 19.5703C30.9707 19.576 31.8893 20.4689 31.9925 21.6547C32.0826 22.6865 31.2963 23.7126 30.2567 23.9025C30.0137 23.9469 29.7632 23.9725 29.5164 23.9734C27.745 23.9791 25.9735 23.9762 24.2011 23.9762C24.1101 23.9762 24.0191 23.9762 23.9159 23.9762H23.9168Z" fill="#AA00AD"/>
<path d="M23.9262 24.8628H30.0203V25.7245H23.9262V24.8628Z" fill="#AA00AD"/>
</g>
<defs>
<clipPath id="clip0_51_84">
<rect width="24" height="23" fill="white" transform="translate(8 9)"/>
</clipPath>
</defs>
</svg>
