<svg width="112" height="112" viewBox="0 0 112 112" fill="none" xmlns="http://www.w3.org/2000/svg">
<path d="M30.9537 37.0472C26.573 38.1246 25.2062 42.4779 26.7701 46.6342H25.5698C18.0614 46.6342 10.553 46.6342 3.04455 46.6342C2.75105 46.6342 2.46192 46.6254 2.16842 46.6342C0.858604 46.6823 0.0394287 47.3875 0.0131454 48.4736C-0.0131378 49.6167 0.810425 50.3612 2.19909 50.3612C10.5092 50.3744 18.8193 50.3656 27.1293 50.37C28.1865 50.37 28.7765 50.9101 28.8991 51.9904C28.9298 52.2445 28.9561 52.4985 28.9692 52.7525C29.1839 56.3482 30.2571 57.7672 33.4638 58.8402C33.9938 60.9949 34.4538 63.084 35.0276 65.1424C35.4964 66.8286 36.5083 68.2038 37.7524 69.4257C38.0415 69.7104 38.2912 70.2272 38.2562 70.6126C38.0854 72.5352 37.8576 74.4535 37.5465 76.3543C37.494 76.6784 36.9858 77.0594 36.6134 77.1776C30.9537 78.9558 25.2719 80.6551 19.6209 82.4551C16.0901 83.5806 13.7903 86.0332 13.2777 89.6858C12.9098 92.3311 13.0543 95.0684 13.177 97.7531C13.2515 99.3779 14.8416 100.609 16.5851 100.766C16.9093 100.797 17.2422 100.784 17.5708 100.784C43.1932 100.784 68.8156 100.788 94.438 100.762C95.3185 100.762 96.2779 100.591 97.0576 100.21C98.2842 99.6144 98.8887 98.4757 98.8975 97.083C98.9062 95.1516 98.9238 93.2202 98.8975 91.2888C98.8362 87.0931 96.3611 83.7076 92.3528 82.4463C86.7675 80.6901 81.1646 78.9689 75.553 77.2871C74.7251 77.0375 74.3965 76.6827 74.3308 75.8068C74.2125 74.1732 73.9497 72.5528 73.7175 70.9323C73.6212 70.271 73.7613 69.798 74.2958 69.3118C76.8628 66.9819 77.5944 63.8154 78.0544 60.5789C78.2077 59.5015 78.3785 58.8095 79.592 58.3891C81.664 57.6752 82.7154 55.989 82.9388 53.8124C83.022 53.0153 83.0746 52.2182 83.1622 51.4211C83.2454 50.659 83.6046 50.3393 84.4545 50.3525C88.2437 50.405 92.0374 50.3744 95.8267 50.3744C100.308 50.3744 104.794 50.3744 109.275 50.3744C109.674 50.3744 110.081 50.3875 110.476 50.3174C111.378 50.1554 111.886 49.5554 111.961 48.6707C112.039 47.7729 111.61 47.094 110.756 46.8093C110.287 46.6517 109.753 46.6429 109.249 46.6429C101.666 46.6342 94.0875 46.6342 86.5046 46.6342C86.1104 46.6342 85.7117 46.6342 85.1598 46.6342C85.9571 44.6371 86.141 42.7363 85.4051 40.8049C84.6648 38.8472 83.2849 37.6297 81.4187 37.2048C81.8568 34.472 82.5051 31.8442 82.6628 29.1858C83.2805 18.5564 78.2208 11.5184 67.8913 8.88185C59.625 6.77087 51.2711 6.78839 43.0574 9.23222C36.1885 11.2775 31.4092 15.5739 29.8497 22.8397C28.9342 27.0967 29.4204 31.3143 30.5156 35.4837C30.6514 36.0048 30.796 36.526 30.9405 37.0472H30.9537ZM16.8261 97.0042C16.8261 95.156 16.8173 93.4129 16.8261 91.6698C16.8392 88.7004 18.2366 86.8084 21.0709 85.9237C25.2369 84.623 29.4117 83.3354 33.582 82.0521C35.0627 81.5967 36.5521 81.1587 38.0503 80.7076C40.0479 84.6186 43.1976 87.0799 47.2278 88.2493C49.6503 88.9501 52.2086 89.3048 54.7318 89.515C58.0523 89.7909 61.351 89.3836 64.5488 88.3632C68.671 87.0493 71.9302 84.6536 73.9716 80.6945C79.8986 82.5295 85.7774 84.3033 91.6256 86.1777C93.4918 86.7778 94.7928 88.2143 94.9987 90.1325C95.244 92.3837 95.0557 94.6786 95.0557 97.0042H16.8173H16.8261ZM32.5351 50.4751H79.4781C79.3948 51.2634 79.2985 51.9466 79.2547 52.6299C79.1189 54.6839 78.6764 55.1394 76.6219 55.2883C75.277 55.389 74.6637 56.0109 74.598 57.3555C74.5849 57.6445 74.5893 57.938 74.5761 58.2314C74.3527 63.0796 72.7056 67.0957 68.0884 69.3994C67.4707 69.706 66.8574 70.0432 66.3011 70.4505C65.1139 71.3265 63.8698 72.1586 62.8185 73.1834C58.6525 77.2433 53.9915 77.6375 49.7729 73.6608C48.1345 72.1148 46.4217 70.7921 44.4636 69.7323C43.732 69.3337 43.0618 68.8169 42.3521 68.3702C39.8989 66.833 38.392 64.6563 37.9276 61.7964C37.713 60.4694 37.4983 59.138 37.4151 57.7978C37.3012 55.9321 36.9332 55.481 35.0408 55.2752C33.3718 55.0956 32.8242 54.5087 32.7322 52.8401C32.6884 52.0824 32.6052 51.3247 32.5307 50.4707L32.5351 50.4751ZM41.9535 24.101C47.4424 31.7259 64.6189 31.7259 69.937 24.2937C71.5141 25.3361 72.4909 26.8558 73.3101 28.4938C74.9134 31.7172 75.8202 35.1596 76.3591 38.6983C76.7226 41.072 77.3009 41.4969 79.5876 40.9275C80.8974 40.599 82.0013 41.2954 82.0364 42.6531C82.0583 43.5684 81.7823 44.5013 81.5633 45.4079C81.3398 46.3145 80.801 46.6648 79.7584 46.6604C64.159 46.6166 48.5639 46.6298 32.9644 46.6298C30.7697 46.6298 30.6864 46.5641 30.095 44.4268C30.0644 44.3217 30.0337 44.2166 30.0118 44.1115C29.5037 41.5801 30.6207 40.5158 33.1089 41.1596C34.4932 41.5188 35.5665 40.7699 35.676 39.4384C36.0221 35.1377 37.2267 31.0734 39.3908 27.3419C40.0523 26.2032 41.0335 25.2529 41.9622 24.0966L41.9535 24.101ZM78.5625 31.4763C78.2603 30.6661 77.9843 29.8427 77.6513 29.0456C76.4248 26.0938 74.9616 23.2952 72.25 21.39C70.305 20.0236 68.36 20.2645 66.8399 22.0995C65.6133 23.5755 64.0845 24.5609 62.2884 25.1828C59.2921 26.2208 56.2037 26.2996 53.1066 25.9492C49.8693 25.5813 46.9781 24.4602 44.8491 21.7798C44.4154 21.2324 43.6225 20.8426 42.9172 20.6499C41.3489 20.2251 40.0917 21.0046 38.9571 21.9944C36.7536 23.9171 35.4307 26.4135 34.3443 29.0631C34.0858 29.6982 33.8361 30.3376 33.5864 30.977C33.2929 30.3332 33.1746 29.7288 33.144 29.1244C32.7979 22.4937 35.0802 16.7476 41.4059 13.8659C42.6237 13.3096 43.8985 12.8235 45.1951 12.495C51.6916 10.8439 58.2451 10.8089 64.8117 11.987C68.5177 12.6527 72.0485 13.8702 74.7908 16.5681C79.005 20.72 79.535 25.9229 78.5581 31.4807L78.5625 31.4763ZM70.1298 72.2725C70.3839 74.1995 70.6379 75.7367 70.7606 77.2827C70.8132 77.9353 70.7212 78.6755 70.4496 79.2579C69.4114 81.4609 67.6591 83.0244 65.4556 83.9485C59.1387 86.5982 52.7649 86.5894 46.4611 83.9047C44.2664 82.9719 42.5624 81.3645 41.4979 79.1747C41.3139 78.7937 41.1255 78.3382 41.1649 77.9397C41.3402 76.1791 41.5986 74.4228 41.8396 72.5615C42.1287 72.7104 42.3171 72.8024 42.501 72.8987C44.1964 73.8228 45.734 74.8959 47.1182 76.3017C49.6371 78.8638 52.8218 80.3353 56.4403 80.1645C60.028 79.9981 62.9981 78.2725 65.5739 75.7455C66.8662 74.4798 68.4651 73.525 70.1298 72.2725Z" fill="#333333"/>
<path d="M0.00876236 16.4542C0.00876236 19.5111 0.00876236 22.5725 0.00876236 25.6295C0.00876236 27.101 0.692139 27.9726 1.84425 27.9945C3.0314 28.0164 3.72793 27.1317 3.73669 25.5857C3.73669 25.2922 3.73669 25.0032 3.73669 24.7097C3.73669 19.1739 3.73669 13.6381 3.73669 8.10661C3.73669 5.17665 5.16916 3.74013 8.08667 3.73575C13.8034 3.73575 19.5245 3.73575 25.2413 3.73575C25.5348 3.73575 25.8239 3.74889 26.113 3.72699C27.2257 3.65692 28.0011 2.88611 27.9967 1.86128C27.9923 0.840825 27.2126 0.0393542 26.0955 0.0174561C24.2031 -0.0175808 22.3063 0.00431727 20.4138 0.00431727C16.1909 0.00431727 11.9635 -0.00882159 7.7406 0.00431727C3.22854 0.0218357 0.0350475 3.2102 0.00876236 7.70807C-0.00875854 10.6205 0.00876236 13.533 0.00876236 16.4454V16.4542Z" fill="#333333"/>
<path d="M111.996 16.4108C111.996 13.494 112.009 10.5816 111.991 7.66911C111.965 3.23693 108.767 0.0266711 104.33 0.0135323C98.3193 -0.00398621 92.309 0.00477303 86.2988 0.0135323C84.8575 0.0135323 83.9814 0.753688 84.0033 1.91429C84.0252 3.03985 84.8707 3.73621 86.2593 3.74059C92.1601 3.74497 98.0608 3.74059 103.962 3.74059C106.813 3.74059 108.263 5.19024 108.263 8.04575C108.263 13.7612 108.263 19.4809 108.263 25.1963C108.263 25.4898 108.255 25.7788 108.268 26.0723C108.329 27.1978 109.069 27.9818 110.094 27.9993C111.15 28.0168 111.974 27.211 111.983 26.0285C112.009 22.8226 111.991 19.6211 111.991 16.4152L111.996 16.4108Z" fill="#333333"/>
<path d="M111.996 95.3445C111.996 92.3576 111.996 89.3707 111.996 86.3882C111.996 84.851 111.286 83.9619 110.099 83.9838C108.942 84.0057 108.272 84.8597 108.268 86.3444C108.268 92.2087 108.268 98.0687 108.268 103.933C108.268 106.784 106.818 108.238 103.966 108.238C98.1002 108.238 92.2389 108.221 86.3732 108.269C85.7424 108.273 84.9145 108.492 84.5377 108.921C84.1697 109.337 83.9989 110.288 84.2311 110.77C84.4895 111.304 85.2649 111.838 85.8694 111.908C87.2712 112.075 88.7037 111.965 90.123 111.965C94.7841 111.965 99.4451 111.974 104.11 111.965C108.828 111.956 111.982 108.803 111.996 104.086C112.004 101.174 111.996 98.2614 111.996 95.3489V95.3445Z" fill="#333333"/>
<path d="M16.5501 111.965C19.6078 111.965 22.6698 111.97 25.7275 111.965C27.1162 111.965 27.966 111.269 27.9967 110.148C28.0274 108.983 27.16 108.243 25.7144 108.243C19.9582 108.238 14.2064 108.243 8.45026 108.243C5.01145 108.243 3.73231 106.951 3.73231 103.473C3.73231 97.9023 3.73231 92.3314 3.73231 86.7606C3.73231 86.4671 3.74106 86.1781 3.72792 85.8846C3.66659 84.7678 2.90436 83.9883 1.87929 83.9839C0.858599 83.9839 0.0481777 84.7547 0.0175133 85.8715C-0.0219116 87.2905 0.00437164 88.7095 0.00437164 90.1329C0.00437164 94.6833 0.00437164 99.2381 0.00437164 103.789C0.00437164 108.935 3.06644 111.97 8.24437 111.974C11.0129 111.974 13.7815 111.974 16.5501 111.974V111.965Z" fill="#333333"/>
</svg>
