<svg width="128" height="82" viewBox="0 0 128 82" fill="none" xmlns="http://www.w3.org/2000/svg">
<g clip-path="url(#clip0_361_2)">
<path d="M18.9494 65.1292L11.7864 81.7896H7.12963L0 65.1292H5.10689L9.6414 75.9831L14.2704 65.1292H18.9494Z" fill="#0085FF"/>
<path d="M20.3331 66.769C19.8218 66.3091 19.5718 65.7384 19.5718 65.0569C19.5718 64.3754 19.8274 63.8048 20.3331 63.3449C20.8443 62.885 21.5112 62.6523 22.3392 62.6523C23.1672 62.6523 23.834 62.8684 24.3452 63.3061C24.8565 63.7438 25.1066 64.3034 25.1066 64.9849C25.1066 65.6664 24.8509 66.2925 24.3452 66.7579C23.834 67.2233 23.1672 67.4615 22.3392 67.4615C21.5112 67.4615 20.8443 67.2344 20.3331 66.769ZM20.0719 68.8855H24.6064V81.7838H20.0719V68.8855Z" fill="#0085FF"/>
<path d="M36.4706 81.263C36.0871 81.5013 35.6259 81.6841 35.0758 81.8116C34.5256 81.939 33.9421 81.9999 33.3198 81.9999C31.6304 81.9999 30.3357 81.5899 29.4299 80.7644C28.5241 79.9389 28.0684 78.7089 28.0684 77.0744V72.7417H26.1846V69.362H28.0684V66.0044H32.6029V69.362H35.5648V72.7417H32.6029V77.0245C32.6029 77.4844 32.7252 77.8445 32.9752 78.1049C33.2197 78.3653 33.5532 78.4983 33.9644 78.4983C34.4867 78.4983 34.9535 78.3653 35.3481 78.0939L36.4706 81.2575V81.263Z" fill="#0085FF"/>
<path d="M48.6405 70.1377C49.7685 71.1128 50.3353 72.6088 50.3353 74.6255V81.7894H46.112V80.1217C45.4619 81.3739 44.1837 82 42.2944 82C41.2941 82 40.4272 81.8227 39.6937 81.4736C38.9602 81.1246 38.41 80.6536 38.0321 80.0552C37.6598 79.4624 37.4709 78.7809 37.4709 78.0219C37.4709 76.8029 37.9377 75.85 38.8768 75.1796C39.8159 74.5036 41.2663 74.1656 43.2224 74.1656H45.8008C45.723 72.8027 44.8061 72.1212 43.0557 72.1212C42.4333 72.1212 41.8053 72.2209 41.1718 72.4204C40.5328 72.6198 39.9938 72.8913 39.5492 73.2404L38.021 70.1709C38.7379 69.6944 39.6103 69.3288 40.6328 69.0628C41.6609 68.8024 42.6889 68.6694 43.7225 68.6694C45.8731 68.6694 47.5068 69.157 48.6405 70.1321V70.1377ZM44.9395 78.7643C45.3396 78.5094 45.623 78.1382 45.8008 77.6451V76.5259H43.8448C42.5222 76.5259 41.8665 76.9636 41.8665 77.8335C41.8665 78.2324 42.0165 78.5482 42.3222 78.7865C42.6222 79.0247 43.039 79.1411 43.5614 79.1411C44.0837 79.1411 44.5449 79.0136 44.9451 78.7588L44.9395 78.7643Z" fill="#0085FF"/>
<path d="M53.2028 64.1318H57.7373V81.7895H53.2028V64.1318Z" fill="#0085FF"/>
<path d="M87.0949 65.1292L81.6769 81.7896H76.6144L73.4136 71.6504L70.0738 81.7896H65.0114L59.5933 65.1292H64.4613L67.8288 75.767L71.3631 65.1292H75.7086L79.0762 75.8612L82.5826 65.1292H87.0949Z" fill="#0085FF"/>
<path d="M89.1954 66.769C88.6842 66.3091 88.4341 65.7384 88.4341 65.0569C88.4341 64.3754 88.6898 63.8048 89.1954 63.3449C89.7067 62.885 90.3735 62.6523 91.2015 62.6523C92.0295 62.6523 92.6964 62.8684 93.2076 63.3061C93.7189 63.7438 93.9689 64.3034 93.9689 64.9849C93.9689 65.6664 93.7133 66.2925 93.2076 66.7579C92.6964 67.2233 92.0295 67.4615 91.2015 67.4615C90.3735 67.4615 89.7067 67.2344 89.1954 66.769ZM88.9343 68.8855H93.4688V81.7838H88.9343V68.8855Z" fill="#0085FF"/>
<path d="M108.706 70.1044C109.684 71.0573 110.173 72.4923 110.173 74.4094V81.7838H105.639V75.1463C105.639 73.3844 104.933 72.5034 103.516 72.5034C102.738 72.5034 102.11 72.7583 101.643 73.2625C101.176 73.7722 100.937 74.5313 100.937 75.5452V81.7783H96.4029V68.8799H100.721V70.2817C101.232 69.7608 101.832 69.3564 102.532 69.0794C103.232 68.8023 103.994 68.6638 104.822 68.6638C106.428 68.6638 107.723 69.1403 108.701 70.0933L108.706 70.1044Z" fill="#0085FF"/>
<path d="M118.887 77.2685L117.547 78.6259V81.7895H113.013V64.1318H117.547V73.3901L122.176 68.8912H127.544L122.176 74.4095L128 81.784H122.51L118.881 77.2629L118.887 77.2685Z" fill="#0085FF"/>
<path d="M95.2693 0L80.6877 34.1741L73.4914 16.9596L65.5226 35.4927L72.7968 52.4634H87.4506L110.006 0H95.2693Z" fill="#A6D9FF"/>
<path d="M50.3187 0L58.1985 18.3946L66.0505 0H50.3187Z" fill="#A6D9FF"/>
<path d="M51.4634 34.1741L37.1819 0H21.0944L43.5724 52.4634H58.2318L65.5226 35.4927L58.1985 18.3946L51.4634 34.1741Z" fill="#0085FF"/>
<path d="M80.7822 0H66.4062L73.4914 16.9596L80.7822 0Z" fill="#0085FF"/>
<path d="M66.4062 0H66.0505L58.1985 18.3946L65.5226 35.4927L73.4914 16.9596L66.4062 0Z" fill="#0085FF"/>
</g>
<defs>
<clipPath id="clip0_361_2">
<rect width="128" height="82" fill="white"/>
</clipPath>
</defs>
</svg>
