<svg width="62" height="73" viewBox="0 0 62 73" fill="none" xmlns="http://www.w3.org/2000/svg">
<g clip-path="url(#clip0_51_35)">
<path opacity="0.3" d="M47.77 49.54L61.59 72.06H41.78L30.05 52.4" fill="#0085FF"/>
<path d="M0 0H31.48C36.1 0 40.23 0.64 43.86 1.93C47.49 3.21 50.57 5.03 53.11 7.38C55.64 9.73 57.59 12.54 58.94 15.8C60.3 19.07 60.98 22.68 60.98 26.64V26.86C60.98 31.34 60.17 35.26 58.56 38.64C56.94 42.02 54.72 44.84 51.9 47.12C49.07 49.4 45.77 51.1 41.99 52.24C38.21 53.38 34.16 53.95 29.83 53.95H16.95V72.07H0V0ZM30.38 38.86C34.63 38.86 37.94 37.74 40.29 35.5C42.64 33.26 43.81 30.49 43.81 27.19V26.97C43.81 23.16 42.58 20.26 40.12 18.27C37.66 16.29 34.3 15.3 30.05 15.3H16.95V38.86H30.38Z" fill="#0085FF"/>
</g>
<defs>
<clipPath id="clip0_51_35">
<rect width="61.6" height="72.06" fill="white"/>
</clipPath>
</defs>
</svg>
