<svg width="40" height="40" viewBox="0 0 40 40" fill="none" xmlns="http://www.w3.org/2000/svg">
<g clip-path="url(#clip0_1_38)">
<path d="M20 40C31.0457 40 40 31.0457 40 20C40 8.9543 31.0457 0 20 0C8.9543 0 0 8.9543 0 20C0 31.0457 8.9543 40 20 40Z" fill="#FCF0E2"/>
<g clip-path="url(#clip1_1_38)">
<path d="M8 19.9892C8.0047 13.3764 13.3959 7.99437 20.0103 8C26.6238 8.00564 32.0056 13.3961 32 20.0099C31.9944 26.6217 26.6003 32.0066 19.9897 32C13.3762 31.9925 7.99531 26.602 8 19.9892ZM8.79981 19.993C8.797 26.1589 13.8212 31.1917 19.9869 31.2011C26.1507 31.2095 31.1927 26.1824 31.2002 20.0192C31.2077 13.8421 26.177 8.80079 20.0009 8.80079C13.8362 8.80079 8.80169 13.8308 8.79888 19.9939L8.79981 19.993Z" fill="#864800"/>
<path d="M23.0012 15.2831C22.0465 14.6776 21.0345 14.3847 19.9362 14.4072C17.119 14.4645 14.896 16.4256 14.4586 19.2325C14.3356 20.023 13.8916 20.4013 13.0842 20.4023C12.3661 20.4023 11.647 20.407 10.9289 20.4013C10.069 20.3948 9.54987 19.8043 9.65313 18.9528C10.0737 15.5018 11.7775 12.862 14.7364 11.0614C18.513 8.76324 23.4227 9.20729 26.7599 12.1072C28.8505 13.9237 30.0389 16.2191 30.3506 18.9687C30.4464 19.809 29.9282 20.3938 29.0796 20.4004C28.3295 20.407 27.5794 20.4051 26.8303 20.4004C26.1347 20.3957 25.6738 20.0164 25.5668 19.3302C25.4438 18.5416 25.21 17.7981 24.7895 17.1165C24.7698 17.0837 24.7454 17.0536 24.721 17.0189C24.2178 17.6629 23.7381 18.3172 23.2152 18.9349C22.5844 19.6794 21.9319 20.406 21.2607 21.1139C20.8026 21.5983 20.2084 21.7222 19.5785 21.5279C18.9664 21.3392 18.5656 20.9101 18.4351 20.2783C18.3027 19.64 18.4896 19.0748 18.9777 18.6467C20.0216 17.7305 21.0814 16.8321 22.1413 15.9337C22.4088 15.7074 22.7008 15.5093 23.003 15.2822L23.0012 15.2831ZM15.7925 15.178C16.3126 14.7283 16.8993 14.3631 17.5452 14.0937C18.1967 13.8214 18.8801 13.6778 19.5794 13.613V10.4455C17.6822 10.4427 15.1758 11.3543 13.5517 12.9371C14.2905 13.6759 15.0293 14.4147 15.7925 15.178ZM12.9387 13.5463C12.9294 13.5529 12.9153 13.5604 12.9049 13.5717C11.4837 15.1432 10.6604 16.9823 10.4436 19.0908C10.4098 19.4231 10.5628 19.593 10.8979 19.5949C11.6311 19.6005 12.3652 19.5977 13.0983 19.5968C13.4954 19.5968 13.6128 19.4935 13.6653 19.1049C13.808 18.0562 14.2004 17.1081 14.819 16.2519C14.9373 16.0886 15.0641 15.9327 15.1786 15.7835C14.4285 15.0343 13.6897 14.2964 12.9378 13.5454L12.9387 13.5463ZM26.5158 12.953C24.7519 11.3749 22.744 10.5272 20.4206 10.4155V13.6008C22.0793 13.8683 22.1676 13.9012 23.602 14.7123C23.6592 14.7452 23.7794 14.7226 23.8413 14.6823C24.2657 14.4044 24.6834 14.1171 25.1002 13.8289C25.2898 13.6975 25.4823 13.5886 25.7263 13.6149C25.7723 13.6196 25.8334 13.5923 25.869 13.5595C26.0812 13.3661 26.2896 13.1671 26.5158 12.953ZM27.0453 13.5003C26.8397 13.7153 26.6463 13.9078 26.4651 14.1115C26.4191 14.1622 26.4079 14.2448 26.3844 14.3143C26.3262 14.4879 26.3027 14.6823 26.2089 14.8325C25.9272 15.2812 25.6146 15.7112 25.3236 16.1543C25.2823 16.2181 25.2532 16.3439 25.287 16.3946C25.8672 17.2583 26.2164 18.2065 26.3628 19.2354C26.3994 19.4935 26.5346 19.594 26.8003 19.5958C27.5729 19.6005 28.3455 19.6015 29.118 19.5958C29.4363 19.593 29.5893 19.4194 29.5555 19.0992C29.5217 18.7819 29.4795 18.4637 29.4166 18.1511C29.0645 16.3974 28.2779 14.8635 27.0453 13.5003ZM25.3612 14.7029C25.3452 14.6879 25.3293 14.6729 25.3133 14.6579C25.2495 14.6982 25.1828 14.7358 25.1209 14.7808C24.0986 15.5244 23.0519 16.2397 22.0615 17.0227C21.1866 17.7145 20.3708 18.4806 19.5344 19.2194C19.249 19.471 19.127 19.7939 19.2312 20.1694C19.4152 20.8332 20.2253 21.0237 20.7303 20.5205C21.8324 19.4194 22.8153 18.2158 23.7409 16.9654C24.2929 16.22 24.8223 15.4577 25.3621 14.7039L25.3612 14.7029Z" fill="#864800"/>
<path d="M16.7942 25.6012C17.3678 26.264 17.241 26.9587 16.9697 27.3633C16.6881 27.7849 16.2835 27.9904 15.7832 28.0008C15.3466 28.0102 14.9092 28.0073 14.4727 28.0008C14.145 27.997 14.0005 27.8496 14.0005 27.5239C13.9986 26.2368 13.9986 24.9488 14.0005 23.6617C14.0005 23.3519 14.1497 23.2008 14.4595 23.1961C14.881 23.1904 15.3025 23.1914 15.724 23.1951C16.3304 23.1998 16.8026 23.4477 17.0617 24.0081C17.3152 24.5554 17.226 25.0708 16.8383 25.5337C16.8233 25.5515 16.813 25.5721 16.7942 25.6012ZM14.8106 25.1957C15.1683 25.1957 15.5109 25.2107 15.8517 25.191C16.1624 25.1732 16.3849 24.9188 16.3933 24.6183C16.4018 24.3095 16.2056 24.0438 15.8892 24.0175C15.5353 23.9875 15.1777 24.0109 14.8097 24.0109L14.8106 25.1957ZM14.8106 27.184C15.1852 27.184 15.5428 27.2056 15.8977 27.1775C16.2009 27.1531 16.3962 26.8939 16.3943 26.5945C16.3924 26.3016 16.1849 26.034 15.8911 26.0134C15.5363 25.988 15.1786 26.0077 14.8115 26.0077V27.185L14.8106 27.184Z" fill="#864800"/>
<path d="M20 25.1009C20.2506 24.6005 20.4769 24.1489 20.7031 23.6983C20.7416 23.6214 20.7792 23.5444 20.8176 23.4683C20.9162 23.2759 21.0627 23.1595 21.2889 23.2149C21.5095 23.2693 21.6006 23.428 21.5987 23.6505C21.5959 24.2053 21.5987 24.7592 21.5987 25.314C21.5987 26.0246 21.5987 26.7353 21.5987 27.446C21.5987 27.8064 21.4635 27.9951 21.2053 27.9989C20.9472 28.0027 20.7998 27.8064 20.7998 27.4553C20.7998 26.8461 20.7998 26.2368 20.7998 25.6275C20.7998 25.5524 20.7998 25.4773 20.7998 25.4022C20.7857 25.3985 20.7716 25.3947 20.7576 25.391C20.6468 25.6097 20.5313 25.8247 20.4281 26.0462C20.3398 26.2349 20.2281 26.3804 19.9953 26.3776C19.7738 26.3748 19.6658 26.2359 19.5804 26.0556C19.4752 25.8322 19.3607 25.6144 19.2039 25.4022C19.2039 25.8031 19.2039 26.203 19.2039 26.6039C19.2039 26.9165 19.2068 27.2291 19.203 27.5408C19.1992 27.8158 19.0387 27.997 18.8069 27.9998C18.574 28.0027 18.406 27.8205 18.406 27.5483C18.4041 26.2518 18.4041 24.9554 18.406 23.6589C18.406 23.4073 18.5205 23.2468 18.728 23.2092C18.9552 23.1679 19.0969 23.2881 19.1927 23.4805C19.4536 24.0034 19.7146 24.5263 20.0019 25.1009H20Z" fill="#864800"/>
<path d="M23.9953 27.2037V23.9959C23.7475 23.9959 23.5165 23.9978 23.2856 23.9959C22.9749 23.9922 22.8097 23.857 22.8059 23.6063C22.8022 23.3491 22.9777 23.197 23.2941 23.1961C24.0357 23.1933 24.7773 23.1933 25.5198 23.1961C25.8146 23.197 25.9967 23.3557 25.9986 23.5969C26.0005 23.841 25.824 23.9912 25.5245 23.9959C25.2926 23.9987 25.0608 23.9959 24.8148 23.9959C24.8073 24.0907 24.7979 24.1583 24.7979 24.2269C24.797 25.1403 24.8017 26.0537 24.7932 26.9672C24.7914 27.1493 24.8392 27.2216 25.0289 27.2047C25.2072 27.1897 25.3884 27.1972 25.5677 27.2037C25.8324 27.2131 25.9976 27.368 25.9986 27.598C25.9986 27.8252 25.8315 27.9923 25.5705 28.0008C25.2504 28.0102 24.9303 28.0036 24.6102 28.0036C24.1577 28.0036 23.7043 28.0102 23.2518 28.0008C22.911 27.9942 22.6933 27.7022 22.8482 27.4413C22.9148 27.3286 23.081 27.2329 23.2152 27.2131C23.4583 27.1765 23.7109 27.2028 23.9962 27.2028L23.9953 27.2037Z" fill="#864800"/>
</g>
</g>
<defs>
<clipPath id="clip0_1_38">
<rect width="40" height="40" fill="white"/>
</clipPath>
<clipPath id="clip1_1_38">
<rect width="24" height="24" fill="white" transform="translate(8 8)"/>
</clipPath>
</defs>
</svg>
