<svg width="40" height="40" viewBox="0 0 40 40" fill="none" xmlns="http://www.w3.org/2000/svg">
<g clip-path="url(#clip0_1_8)">
<path d="M20 40C31.0457 40 40 31.0457 40 20C40 8.9543 31.0457 0 20 0C8.9543 0 0 8.9543 0 20C0 31.0457 8.9543 40 20 40Z" fill="#E4F2FF"/>
<g clip-path="url(#clip1_1_8)">
<mask id="mask0_1_8" style="mask-type:luminance" maskUnits="userSpaceOnUse" x="8" y="9" width="24" height="23">
<path d="M32 9H8V32H32V9Z" fill="white"/>
</mask>
<g mask="url(#mask0_1_8)">
<path d="M31.6056 25.2533C31.4989 24.7889 31.3709 24.3065 31.215 23.7796C31.2113 23.7663 31.2067 23.7549 31.1983 23.736C30.6212 21.7875 29.8687 19.9774 28.9612 18.3577C28.6142 17.7256 28.2626 17.1579 27.8831 16.6158L27.8747 16.6035C27.4368 15.9638 27.0313 15.4691 26.5998 15.0474C26.2909 14.7394 25.9828 14.4873 25.6571 14.2778C25.6015 14.2418 25.5449 14.2067 25.4873 14.1726L25.4706 14.1622C25.4604 14.1556 25.4512 14.1499 25.44 14.1433C25.3788 14.1082 25.3175 14.076 25.2572 14.0466L25.2517 14.0437C25.0141 13.9253 24.7785 13.8428 24.5521 13.7983L24.5196 13.7917C24.502 13.7888 24.4853 13.786 24.4676 13.7831L24.4518 13.7812C24.4194 13.7765 24.386 13.7708 24.3535 13.768L24.3275 13.7661C23.8692 13.7215 23.4331 13.8296 23.0294 14.0883C22.9329 13.9935 22.8364 13.9006 22.74 13.8087C22.4625 13.5424 22.2018 13.2913 21.9531 13.0212C21.6627 12.6497 21.5235 12.2204 21.5272 11.7086C21.5337 10.9173 21.5328 10.814 21.5319 10.4699C21.5319 10.3041 21.53 10.0814 21.5291 9.69754C21.5291 9.45114 21.4567 9.26634 21.3148 9.14787C21.3064 9.14124 21.2981 9.1346 21.2897 9.12797C21.1765 9.04457 21.0327 9.00382 20.8518 9.00287L20 9.00098L19.1482 9.00287C18.9663 9.00287 18.8235 9.04457 18.7093 9.12797C18.7001 9.1346 18.6917 9.14124 18.6834 9.14787C18.5423 9.26634 18.4699 9.45114 18.4699 9.69754C18.4699 10.0804 18.4681 10.3022 18.4672 10.4671C18.4653 10.8111 18.4653 10.9144 18.4718 11.7086C18.4755 12.2204 18.3363 12.6497 18.0459 13.0212C17.7973 13.2913 17.5356 13.5434 17.2582 13.8087C17.1626 13.9006 17.0652 13.9935 16.9687 14.0883C16.565 13.8296 16.1289 13.7215 15.6632 13.767L15.6437 13.7689C15.6112 13.7727 15.5787 13.7774 15.5463 13.7822L15.5296 13.785C15.5119 13.7879 15.4952 13.7898 15.4776 13.7936L15.4451 13.8002C15.2187 13.8447 14.9831 13.9281 14.74 14.0485L14.7372 14.0504C14.6769 14.0807 14.6166 14.112 14.5562 14.1461C14.546 14.1518 14.5358 14.1584 14.5256 14.1651L14.5089 14.1755C14.4514 14.2086 14.3957 14.2437 14.34 14.2797C14.0144 14.4892 13.7054 14.7413 13.3983 15.0483C12.9659 15.4719 12.5604 15.9667 12.1225 16.6054L12.1095 16.6244C11.7337 17.1598 11.383 17.7275 11.0359 18.3587C10.4653 19.3784 9.95313 20.4749 9.51518 21.6198C9.48456 21.6747 9.46229 21.7325 9.45023 21.7922C9.21455 22.4206 8.99465 23.0773 8.79701 23.7436C8.79237 23.7559 8.78681 23.7682 8.7831 23.7815C8.62629 24.3094 8.49917 24.7917 8.39247 25.2552C8.12617 26.4038 7.9972 27.4283 7.99998 28.3855V28.394V28.4092C7.99998 28.7172 8.01576 28.9996 8.04916 29.2725C8.11133 29.7852 8.2338 30.2269 8.42401 30.623C8.50381 30.7879 8.60124 30.9471 8.71722 31.0997C8.72835 31.1139 8.73856 31.1281 8.74969 31.1424C8.77289 31.1708 8.79609 31.1992 8.81928 31.2257C8.83691 31.2466 8.85547 31.2656 8.87403 31.2855C9.19321 31.6276 9.5959 31.855 10.0338 31.9432C10.1007 31.9583 10.161 31.9706 10.2204 31.9801C10.3141 31.9953 10.4069 32.0019 10.4978 32.0019C10.8652 32.0019 11.2104 31.892 11.5333 31.7688C12.2653 31.4873 13.0058 31.1044 13.9336 30.5254C14.2027 30.3595 14.4755 30.1842 14.7669 29.9909L14.9469 29.8724C15.0638 29.7957 15.189 29.7132 15.3059 29.6279L15.5166 29.4839C15.7606 29.3265 16.0037 29.2128 16.2598 29.136C16.4685 29.0991 16.6727 29.0422 16.8647 28.9692C16.8824 28.9626 16.9 28.956 16.9176 28.9493L16.9334 28.9437C18.0988 28.4944 18.8819 27.3629 18.9292 26.0636C18.932 26.001 18.9348 25.9385 18.9348 25.875C18.9348 25.5982 18.9348 25.3215 18.9348 25.0448V24.9623C18.9376 23.9777 18.9394 22.6793 18.9348 21.3601V21.1554C18.9367 20.9696 18.9376 20.7848 18.9385 20.5991C18.9413 20.256 18.9329 19.8968 18.9135 19.5329C18.8763 18.7093 18.7678 17.8725 18.5896 17.047C18.5804 17.0034 18.5766 16.9561 18.5804 16.9295C18.9747 16.5192 19.3663 16.1221 19.781 15.7022L19.9991 15.4814L20.2097 15.6947C20.6272 16.1173 21.0216 16.5173 21.4187 16.9305C21.4215 16.9589 21.4178 17.0044 21.4085 17.047C21.2303 17.8725 21.1218 18.7093 21.0847 19.5319C21.0652 19.8959 21.0568 20.255 21.0596 20.5991C21.0615 20.7952 21.0624 20.9914 21.0624 21.1866V21.3591C21.0587 22.6831 21.0624 23.9805 21.0642 24.9623V25.0448C21.0642 25.3215 21.0642 25.5982 21.0642 25.875C21.0642 25.9385 21.0661 26.001 21.0698 26.0607C21.1171 27.361 21.8984 28.4916 23.061 28.9418L23.0823 28.9503C23.099 28.9569 23.1167 28.9636 23.1306 28.9683C23.3254 29.0422 23.5296 29.0991 23.7383 29.136C23.9944 29.2128 24.2375 29.3265 24.4778 29.482L24.6885 29.626C24.8081 29.7132 24.9334 29.7966 25.0512 29.8734L25.2313 29.9909C25.5217 30.1842 25.7945 30.3586 26.0645 30.5263C26.9923 31.1054 27.7328 31.4883 28.4648 31.7697C28.8675 31.9242 29.3046 32.0569 29.7778 31.982C29.8362 31.9725 29.8975 31.9612 29.9605 31.946C30.4022 31.8579 30.8049 31.6304 31.1241 31.2883C31.1426 31.2684 31.1612 31.2485 31.1788 31.2286C31.203 31.2011 31.2261 31.1736 31.2493 31.1442C31.2586 31.1319 31.2679 31.1206 31.2772 31.1082L31.2837 31.0988C31.3969 30.95 31.4943 30.7908 31.5741 30.6258C31.7652 30.2307 31.8877 29.789 31.9489 29.2763C31.9833 29.0024 32 28.7191 31.9991 28.412V28.3883C32.0028 27.4311 31.8729 26.4057 31.6047 25.2561L31.6056 25.2533ZM17.5523 18.5454C17.1607 18.9501 16.7682 19.3528 16.3739 19.7547C16.0417 20.092 15.7086 20.4285 15.3737 20.763C15.3412 20.7952 15.2558 20.8218 15.1835 20.8227H15.0369C14.7965 20.8256 14.5572 20.8265 14.3169 20.8265H13.3797H12.9102C12.861 20.8265 12.8128 20.8265 12.7645 20.8284C12.7404 20.8303 12.7172 20.8341 12.694 20.8379L12.6643 20.8426C12.6319 20.8493 12.5994 20.8587 12.5678 20.8701L12.5502 20.8758C12.3201 20.9677 12.1735 21.18 12.1679 21.4283C12.1614 21.7666 12.4129 22.0348 12.7478 22.0519C12.7571 22.0538 12.7673 22.0547 12.7785 22.0557C12.8434 22.0595 12.9065 22.0585 12.9687 22.0576H13.0401C13.2832 22.0595 13.5272 22.0576 13.7713 22.0576C13.8752 22.0576 13.9782 22.0576 14.0821 22.0576L12.5428 23.6469C12.5233 23.6668 12.5038 23.6867 12.4843 23.7057C12.4472 23.7426 12.411 23.7786 12.3758 23.8175C12.3247 23.8734 12.283 23.9341 12.2514 23.9957L12.2412 24.0137C12.2357 24.0241 12.231 24.0345 12.2292 24.0393C12.1438 24.2127 12.1484 24.4022 12.2412 24.588C12.3702 24.8458 12.655 24.9718 12.9167 24.8875C13.0689 24.8382 13.196 24.732 13.2758 24.6515C13.6878 24.2373 14.1025 23.8137 14.5033 23.4033L14.9478 22.9494C14.9478 23.2422 14.9478 23.5341 14.9478 23.827C14.9478 24.4363 14.9478 25.0467 14.9496 25.6551C14.9496 25.6627 14.9497 25.6703 14.9506 25.6778V25.6921C14.9682 26.0351 15.1974 26.2882 15.5101 26.31C15.5184 26.3109 15.5259 26.3119 15.5351 26.3128H15.5388C15.5388 26.3128 15.5444 26.3128 15.5472 26.3128H15.5639C15.5639 26.3128 15.5695 26.3119 15.5722 26.3109C15.9035 26.3014 16.1531 26.0247 16.1549 25.6636L16.1577 25.0296C16.1614 24.2032 16.1651 23.3484 16.1531 22.5097V22.3068C16.1531 22.2121 16.1531 22.1164 16.1522 22.0216C16.1661 21.8254 16.2217 21.6728 16.3322 21.5297C16.411 21.4511 16.4899 21.3705 16.5688 21.2909L16.6643 21.1942C16.913 20.9545 17.1561 20.7024 17.3918 20.4579C17.5022 20.3441 17.6126 20.2295 17.723 20.1167C17.7258 22.0064 17.7286 23.8962 17.7295 25.7859C17.7295 26.1536 17.6655 26.4881 17.5384 26.781C17.5347 26.7895 17.5309 26.798 17.5282 26.8066C17.5263 26.8113 17.5245 26.817 17.5217 26.8217L17.5161 26.8322C17.5124 26.8388 17.5087 26.8454 17.505 26.853C17.3417 27.1894 17.0976 27.4558 16.7812 27.6434C16.501 27.8074 16.1698 27.9078 15.7958 27.9419C15.64 27.9561 15.498 28.0225 15.4071 28.0737C15.3616 28.0993 15.3171 28.1267 15.2753 28.1552C14.1693 28.9294 12.9798 29.7388 11.6706 30.3757C11.3997 30.5074 11.1306 30.6154 10.8726 30.696C10.3669 30.8542 9.90766 30.6941 9.61353 30.2572L9.60611 30.2458C9.59868 30.2344 9.59126 30.2231 9.58291 30.2098L9.57178 30.1908C9.55507 30.1615 9.53837 30.1311 9.5226 30.0999C9.26651 29.5796 9.22197 29.0128 9.21084 28.5759C9.18764 27.6169 9.31754 26.5829 9.62002 25.3215C10.0626 23.5228 10.6657 21.8216 11.4127 20.2645L11.4164 20.2579C11.4284 20.238 11.4405 20.2181 11.4516 20.1963C11.653 19.7812 11.8589 19.3813 12.0631 19.0088C12.3563 18.4828 12.6708 17.9654 12.9993 17.4726C13.1682 17.2262 13.3231 17.011 13.4725 16.8168C13.8084 16.3799 14.2714 15.8245 14.8661 15.398C15.1974 15.1611 15.4952 15.0246 15.7504 14.9934L15.7782 14.9905C15.8014 14.9886 15.8246 14.9867 15.846 14.9867C15.8487 14.9867 15.8515 14.9867 15.8552 14.9867C16.27 14.9867 16.6161 15.271 16.9111 15.8567C17.1932 16.4149 17.3871 17.0613 17.5226 17.8886C17.5514 18.0734 17.5764 18.2582 17.5978 18.4373C17.5996 18.4572 17.5801 18.5151 17.5532 18.5425L17.5523 18.5454ZM19.6762 10.8414C19.6762 10.7239 19.6762 10.5647 19.6771 10.2425H20.3229C20.3229 10.5638 20.3229 10.723 20.3238 10.8405C20.3238 11.0518 20.3238 11.1295 20.3219 11.7749C20.3173 12.6743 20.6291 13.4438 21.248 14.0617C21.479 14.292 21.7072 14.5252 21.9346 14.7574C22.0134 14.8379 22.0932 14.9185 22.1721 14.999L21.8613 15.6141C21.8483 15.6018 21.8353 15.5895 21.8232 15.5762C21.6961 15.4464 21.569 15.3165 21.4428 15.1867C21.2322 14.9697 21.0206 14.7536 20.8072 14.5394C20.565 14.2968 20.2885 14.1688 20.0074 14.1688H19.9981C19.7161 14.1688 19.4396 14.2968 19.1974 14.5394C18.9821 14.7545 18.7706 14.9725 18.5581 15.1905C18.4328 15.3194 18.3066 15.4483 18.1814 15.5762C18.1693 15.5885 18.1563 15.6018 18.1433 15.6141L17.8325 14.999C17.9095 14.9204 17.9865 14.8417 18.0635 14.7631C18.2927 14.529 18.5228 14.2939 18.7557 14.0617C19.3746 13.4438 19.6854 12.6743 19.6817 11.7749C19.678 11.1295 19.6789 11.0518 19.6789 10.8414H19.6762ZM22.2779 20.1205C22.3892 20.2332 22.4987 20.3479 22.6091 20.4616C22.8448 20.7052 23.0879 20.9582 23.3347 21.1952L23.4321 21.2947C23.511 21.3743 23.5889 21.4539 23.6687 21.5335C23.7792 21.6757 23.8348 21.8282 23.8487 22.0254C23.8487 22.123 23.8487 22.2197 23.8487 22.3163V22.5115C23.8367 23.3493 23.8395 24.2013 23.8432 25.0258L23.846 25.6674C23.8469 26.0285 24.0974 26.3052 24.4287 26.3147C24.4324 26.3147 24.4361 26.3147 24.4389 26.3157H24.4435H24.4565H24.4602H24.4648C24.4732 26.3157 24.4815 26.3138 24.4899 26.3119C24.8035 26.291 25.0327 26.0361 25.0485 25.694C25.0485 25.6902 25.0485 25.6864 25.0494 25.6826L25.0512 25.6579C25.054 25.0429 25.0531 24.4269 25.0531 23.8118C25.0531 23.5246 25.0531 23.2384 25.0531 22.9513L25.4957 23.4043C25.8975 23.8146 26.3122 24.2402 26.7242 24.6543C26.804 24.7349 26.9311 24.841 27.0833 24.8903C27.3458 24.9746 27.6288 24.8486 27.7587 24.5908C27.8515 24.4051 27.8552 24.2155 27.7736 24.0478C27.7699 24.0393 27.7662 24.0307 27.7615 24.0222L27.7522 24.0051C27.717 23.9369 27.6752 23.8763 27.6242 23.8194C27.5899 23.7815 27.5528 23.7445 27.5166 23.7085C27.4971 23.6886 27.4776 23.6687 27.4581 23.6488L25.9188 22.0595C26.0227 22.0595 26.1257 22.0595 26.2296 22.0595C26.4727 22.0595 26.7168 22.0604 26.9589 22.0595H27.0313C27.0925 22.0604 27.1566 22.0614 27.2224 22.0576C27.2317 22.0576 27.241 22.0557 27.2531 22.0538C27.5899 22.033 27.8385 21.7666 27.832 21.4302C27.8274 21.1819 27.6808 20.9696 27.4488 20.8777C27.4433 20.8758 27.4377 20.8739 27.4349 20.873C27.4006 20.8606 27.3681 20.8512 27.3347 20.8436C27.3291 20.8426 27.3226 20.8417 27.3162 20.8407L27.3069 20.8388C27.2837 20.835 27.2605 20.8313 27.2364 20.8294C27.1881 20.8265 27.1389 20.8265 27.0907 20.8275H26.6221H25.685C25.4447 20.8275 25.2053 20.8265 24.965 20.8246H24.8193C24.7469 20.8227 24.6615 20.7962 24.6291 20.764C24.2941 20.4294 23.9601 20.092 23.6279 19.7547C23.2345 19.3528 22.842 18.95 22.4505 18.5463C22.4236 18.5188 22.4041 18.461 22.4059 18.4411C22.4263 18.262 22.4523 18.0772 22.4811 17.8924C22.6165 17.0641 22.8105 16.4178 23.0925 15.8596C23.3904 15.2701 23.7374 14.9858 24.1559 14.9896C24.1791 14.9896 24.2023 14.9915 24.2282 14.9943L24.2514 14.9962C24.5084 15.0275 24.8063 15.1639 25.1375 15.4018C25.7332 15.8283 26.1953 16.3836 26.5312 16.8205C26.6796 17.0139 26.8346 17.2281 27.0035 17.4745C27.3329 17.9692 27.6474 18.4866 27.9397 19.0116C28.1438 19.3841 28.3489 19.784 28.5511 20.2001C28.5623 20.2228 28.5743 20.2427 28.5873 20.2636L28.591 20.2693C29.338 21.8264 29.9411 23.5284 30.3837 25.3262C30.6861 26.5886 30.816 27.6226 30.7928 28.5816C30.7826 29.0176 30.7372 29.5853 30.4811 30.1056C30.4653 30.1368 30.4486 30.1672 30.4291 30.2022L30.4198 30.2183C30.4115 30.2316 30.4031 30.2439 30.3911 30.2629C30.096 30.7017 29.6367 30.8618 29.131 30.7036C28.8731 30.6221 28.604 30.515 28.3331 30.3832C27.0239 29.7464 25.8344 28.937 24.7284 28.1627C24.6875 28.1343 24.643 28.1068 24.5985 28.0822C24.5057 28.0291 24.3628 27.9628 24.2078 27.9486C23.8339 27.9144 23.5017 27.814 23.2224 27.65C22.9051 27.4624 22.662 27.1961 22.4987 26.8606C22.495 26.853 22.4913 26.8454 22.4876 26.8378L22.4829 26.8293C22.4811 26.8246 22.4792 26.8198 22.4764 26.8142C22.4727 26.8056 22.4699 26.7971 22.4662 26.7886C22.3391 26.4948 22.2751 26.1602 22.2751 25.7925C22.2769 23.9028 22.2788 22.0131 22.2816 20.1233L22.2779 20.1205Z" fill="#0084FF"/>
</g>
</g>
</g>
<defs>
<clipPath id="clip0_1_8">
<rect width="40" height="40" fill="white"/>
</clipPath>
<clipPath id="clip1_1_8">
<rect width="24" height="23" fill="white" transform="translate(8 9)"/>
</clipPath>
</defs>
</svg>
