<svg width="40" height="40" viewBox="0 0 40 40" fill="none" xmlns="http://www.w3.org/2000/svg">
<circle cx="20" cy="20" r="20" fill="#FFEEE7"/>
<path d="M10.0058 12.9562C10.0113 10.1882 12.2813 8.01474 15.1729 8.00632C18.5014 7.99789 21.7529 7.99789 24.8382 8.00632C27.7233 8.01474 29.9878 10.1818 29.9944 12.9394C30.0032 17.3052 30.0021 18.1711 29.9878 22.0286C29.9867 22.4632 29.9163 22.9295 29.7853 23.3747C29.1636 25.4913 27.193 26.928 24.8801 26.9501C24.4751 26.9543 24.079 26.9532 23.6587 26.9522C23.5024 26.9522 23.3451 26.9522 23.1855 26.9522V28.3773C23.1855 29.3803 23.1855 30.3834 23.1855 31.3864C23.1855 31.7916 22.9754 31.9979 22.5628 31.9979C21.7056 31.9989 20.8561 32 20.0199 32C19.1396 32 18.2737 32 17.4286 31.9979C17.0303 31.9979 16.819 31.7916 16.8157 31.4043C16.8124 31.0012 16.8135 30.597 16.8135 30.1939V26.9543H16.358C15.963 26.9543 15.5779 26.9553 15.1927 26.9543C12.289 26.9396 10.0102 24.7609 10.0058 21.9959C9.99807 17.8354 9.99807 16.8726 10.0058 12.9594V12.9562ZM16.7937 23.5873H16.6639C16.4955 23.5873 16.3338 23.5873 16.1709 23.5873C15.9377 23.5863 15.7528 23.5242 15.6351 23.4084C15.5415 23.3158 15.4931 23.1916 15.4975 23.0484C15.5063 22.7274 15.7561 22.5359 16.1654 22.5359C17.7983 22.5359 19.4323 22.5359 21.0663 22.5359H23.0502C23.3275 22.5359 23.6048 22.5338 23.8821 22.5359C24.0823 22.538 24.2474 22.5969 24.3596 22.7074C24.4553 22.8022 24.5048 22.9274 24.5015 23.0705C24.4949 23.3726 24.2507 23.58 23.8931 23.5863C23.7104 23.5894 23.5277 23.5884 23.3418 23.5873H23.1998V25.8923C23.2329 25.8965 23.2648 25.8986 23.2923 25.8976C23.5465 25.8881 23.8061 25.886 24.057 25.8849C24.6149 25.8818 25.1914 25.8786 25.735 25.7807C27.5297 25.4576 28.8864 23.8694 28.8919 22.0875C28.9051 17.5786 28.9051 16.6695 28.8919 12.8699C28.8842 10.7807 27.1016 9.0725 24.9186 9.06198C21.7353 9.04619 18.4277 9.04619 15.0904 9.06198C12.9029 9.07145 11.1171 10.7765 11.1094 12.8615C11.0918 17.1073 11.0929 18.1396 11.1094 22.1054C11.1182 24.1651 12.8974 25.866 15.075 25.8965C15.4854 25.9018 15.8881 25.9007 16.314 25.8997C16.4724 25.8997 16.632 25.8986 16.7926 25.8986V23.5884L16.7937 23.5873ZM22.072 30.9328V23.6084H17.9326V30.9328H22.072Z" fill="#FF4D00"/>
<path d="M13.7381 20.7854C13.7381 17.5963 13.7381 14.4083 13.7381 11.2192C13.7381 10.715 13.9251 10.535 14.4522 10.535C18.1504 10.535 21.8486 10.535 25.5468 10.535C26.0739 10.535 26.2609 10.714 26.2609 11.2181C26.2609 14.4072 26.2609 17.5952 26.2609 20.7843C26.2609 21.2895 26.0739 21.4685 25.5468 21.4685C24.2022 21.4685 22.8576 21.4685 21.5119 21.4685H18.486C17.9831 21.4685 17.4814 21.4685 16.9785 21.4685C16.1357 21.4685 15.2939 21.4685 14.4511 21.4685C13.9229 21.4685 13.7359 21.2895 13.7359 20.7843L13.7381 20.7854ZM14.8516 11.5991V20.396H25.1419V11.5991H14.8516Z" fill="#FF4D00"/>
<path d="M19.9989 27.5816C20.3775 27.5816 20.734 27.7226 21.0046 27.9805C21.2775 28.2405 21.4283 28.5846 21.4272 28.9498C21.4272 29.6961 20.7912 30.3086 20.0121 30.3139H20.0011C19.6237 30.3139 19.2672 30.1729 18.9954 29.915C18.7215 29.655 18.5707 29.3108 18.5718 28.9456C18.5718 28.1994 19.2078 27.5868 19.9868 27.5816H19.9989ZM19.7756 29.1709C19.8383 29.2288 19.9175 29.2603 20 29.2603C20.0022 29.2603 20.0055 29.2603 20.0055 29.2603C20.1827 29.2572 20.3301 29.1119 20.3268 28.9425C20.3257 28.8604 20.2894 28.7835 20.2256 28.7246C20.1629 28.6667 20.0837 28.6351 20.0011 28.6351C19.9989 28.6351 19.9956 28.6351 19.9956 28.6351C19.9109 28.6362 19.8295 28.6709 19.7679 28.732C19.7063 28.793 19.6732 28.872 19.6743 28.9519C19.6754 29.033 19.7118 29.1109 19.7756 29.1698V29.1709Z" fill="#FF4D00"/>
<path d="M20.0165 19.3656H20.0022C19.3409 19.3656 18.7204 19.1224 18.2549 18.6793C17.7763 18.2246 17.5133 17.61 17.5133 16.949V16.9406C17.5177 16.8911 17.521 16.8427 17.5232 16.7932C17.5298 16.6848 17.5364 16.5733 17.554 16.4628C17.7488 15.1745 18.4035 13.9936 19.5544 12.8506C19.6986 12.7085 19.8592 12.6369 20.0188 12.6453C20.1772 12.6537 20.3268 12.739 20.4512 12.8937L20.4644 12.9105C20.8858 13.4315 21.3215 13.9694 21.688 14.5398C22.2084 15.3471 22.4659 16.1333 22.4758 16.9437C22.4835 17.5942 22.2293 18.2046 21.7595 18.6614C21.2973 19.1119 20.6778 19.3614 20.0154 19.3645L20.0165 19.3656ZM20.0011 18.3288H20.0055C20.3896 18.3288 20.7384 18.191 20.9881 17.9447C21.2467 17.6889 21.3832 17.3342 21.3711 16.9448C21.3645 16.7175 21.3292 16.4817 21.2643 16.2438C21.0641 15.4997 20.6646 14.7914 19.9747 13.9609C19.2804 14.7987 18.6532 15.7428 18.6235 16.9511C18.6136 17.3353 18.7523 17.6868 19.0152 17.9426C19.2694 18.191 19.6193 18.3278 20.0011 18.3278V18.3288Z" fill="#FF4D00"/>
</svg>
