<svg width="40" height="40" viewBox="0 0 40 40" fill="none" xmlns="http://www.w3.org/2000/svg">
<circle cx="20" cy="20" r="20" fill="#F5FFDA"/>
<path d="M31.8761 18.634C31.5177 16.9274 30.529 15.4776 29.0907 14.5507C27.6505 13.6229 25.8994 13.3075 24.1585 13.664C20.9104 14.3295 18.6333 17.581 19.1853 20.7639C19.6052 23.1826 21.0072 24.8673 23.3541 25.7695C23.4649 25.8124 23.4854 25.839 23.4835 25.9395C23.4733 26.4167 23.478 26.8883 23.4835 27.2878C23.4901 27.7567 23.6427 28.1132 23.9248 28.3207C24.2656 28.5712 24.3121 28.8674 24.2749 29.265C24.2637 29.3838 24.2665 29.5036 24.2693 29.6197C24.2702 29.6709 24.2721 29.723 24.2721 29.7742V29.8546C24.2721 29.9296 24.2721 30.0054 24.2721 30.0804C24.2711 30.3016 24.2702 30.5301 24.2739 30.7559C24.287 31.4543 24.8483 32 25.5531 32H25.5577C26.2643 31.9973 26.8248 31.447 26.8331 30.7468C26.8369 30.4524 26.8359 30.1572 26.8359 29.8628C26.8359 29.5027 26.8359 29.1297 26.8415 28.7632C26.8424 28.6992 26.8927 28.6032 26.9476 28.5593C27.3917 28.2056 27.6198 27.7595 27.6254 27.2311L27.6272 27.062C27.6319 26.7119 27.6356 26.3509 27.6217 25.9953C27.6161 25.8518 27.6496 25.8051 27.8041 25.7485C30.7478 24.6598 32.498 21.5994 31.8743 18.6304L31.8761 18.634ZM25.258 30.765C25.2514 30.3034 25.2533 29.85 25.2542 29.3692C25.2542 29.2138 25.2542 29.0584 25.2542 28.9012H25.8575V29.2321C25.8575 29.5575 25.8575 29.8793 25.8575 30.201C25.8575 30.255 25.8575 30.3089 25.8584 30.3628C25.8603 30.4954 25.8621 30.6316 25.8519 30.7632C25.8407 30.9214 25.7048 31.0429 25.5438 31.0384C25.405 31.0329 25.2598 30.9287 25.257 30.7641L25.258 30.765ZM26.6395 27.3308C26.6255 27.6242 26.3835 27.8737 26.0874 27.8993C25.7365 27.9304 25.3771 27.9295 25.0178 27.8993C24.731 27.8747 24.4871 27.6279 24.4722 27.35C24.4564 27.0337 24.4601 26.7156 24.4638 26.4075C24.4648 26.3088 24.4657 26.211 24.4666 26.115H26.6441C26.6441 26.2101 26.646 26.307 26.6469 26.4039C26.6507 26.7064 26.6535 27.02 26.6395 27.3308ZM30.3689 19.3607C30.044 19.3653 29.8252 19.5563 29.8243 19.8361C29.8234 20.1139 30.0449 20.3123 30.3643 20.3196C30.4965 20.3224 30.6286 20.3233 30.7608 20.3242C30.8279 20.3242 30.8949 20.3242 30.9619 20.3251C30.9061 21.4878 30.3549 22.6707 29.4435 23.5811C28.5042 24.519 27.3014 25.0739 26.0455 25.1497V25.0272C26.0455 24.8691 26.0465 24.7174 26.0446 24.5656C26.04 24.253 25.8407 24.0318 25.5614 24.0281H25.5549C25.2775 24.0281 25.0736 24.2493 25.068 24.5574C25.0652 24.7155 25.0662 24.8737 25.0671 25.0309V25.1433C22.8198 25.0446 20.3499 23.114 20.1405 20.3205H20.2559C20.4151 20.3205 20.5743 20.3224 20.7335 20.3205C20.9095 20.3178 21.0612 20.2602 21.1599 20.1587C21.2455 20.0701 21.2884 19.9549 21.2846 19.8233C21.2753 19.5454 21.0584 19.3644 20.7316 19.3607C20.5771 19.3589 20.4226 19.3598 20.269 19.3607H20.1572C20.1908 18.2766 20.6935 17.1404 21.5453 16.2281C22.48 15.2281 23.7275 14.6248 25.069 14.5215V14.8451C25.069 15.2107 25.1202 15.4164 25.2412 15.5334C25.3194 15.6093 25.4237 15.6467 25.5652 15.6431C25.9673 15.6367 26.0483 15.3286 26.0483 14.8332V14.5242C28.6066 14.6924 30.8269 16.8744 30.9666 19.3598H30.8549C30.6938 19.3598 30.5328 19.3589 30.3726 19.3598L30.3689 19.3607Z" fill="#88DB00"/>
<path d="M19.217 24.8371C19.1239 24.8892 19.0317 24.9422 18.9386 24.9952C18.7347 25.1122 18.5234 25.2329 18.3112 25.3399C18.2609 25.3655 18.1575 25.3645 18.1101 25.3389C16.196 24.2923 14.6879 23.3252 13.3659 22.2959C11.8587 21.1231 10.8505 20.0865 10.0955 18.9357C9.07605 17.3817 8.76046 15.8944 9.12912 14.388C9.57319 12.5763 10.6484 11.4748 12.326 11.1137C14.39 10.6685 16.2007 11.2919 17.7079 12.9657C17.9155 13.1969 18.0654 13.292 18.2208 13.292C18.2227 13.292 18.2246 13.292 18.2264 13.292C18.38 13.2893 18.5262 13.1933 18.7152 12.9693C19.3669 12.1987 20.174 11.6411 21.1124 11.3102C23.3309 10.5296 25.4404 11.1128 26.6199 12.8322C26.7912 13.0818 27.0761 13.1476 27.3126 12.9922C27.5565 12.8322 27.6002 12.5479 27.4215 12.2847C26.7829 11.3459 25.9441 10.6914 24.9265 10.3395C23.195 9.73981 21.4354 9.93542 19.6955 10.9199C19.3082 11.1393 18.9498 11.4199 18.6025 11.6923C18.4629 11.802 18.3186 11.9145 18.1734 12.0232C17.0246 10.8642 15.6067 10.1969 13.9617 10.0405C11.6455 9.81933 9.59553 10.9464 8.61058 12.9803C7.72896 14.8021 7.8025 16.7245 8.82842 18.6943C9.46892 19.9238 10.4334 21.0719 11.8615 22.3069C13.4143 23.6488 15.2325 24.8664 17.7572 26.2521C17.909 26.3353 18.0635 26.3774 18.2181 26.3774C18.3726 26.3774 18.5206 26.3371 18.6668 26.2567C19.0187 26.0629 19.3715 25.8636 19.7141 25.6635C19.8705 25.572 19.971 25.4523 20.0074 25.3152C20.0371 25.1991 20.0176 25.0793 19.9506 24.9678C19.7998 24.7183 19.5177 24.668 19.216 24.8362L19.217 24.8371Z" fill="#88DB00"/>
<path d="M11.8596 11.8706C10.4911 12.5114 9.74914 13.6686 9.59367 15.4082V15.4456C9.59367 15.4667 9.59367 15.4877 9.59367 15.5087C9.59925 15.8286 9.7901 16.038 10.0778 16.0416H10.0861C10.3701 16.0416 10.5526 15.8487 10.574 15.5252C10.5833 15.3853 10.5926 15.2409 10.6121 15.1001C10.7667 13.9474 11.5673 12.5817 13.3119 12.5287C13.6368 12.5187 13.8509 12.324 13.8463 12.0433C13.8435 11.9126 13.7951 11.7984 13.7057 11.7143C13.6005 11.6155 13.4506 11.568 13.2719 11.5708C12.7245 11.5854 12.2627 11.6832 11.8605 11.8715L11.8596 11.8706Z" fill="#88DB00"/>
<path d="M28.4428 16.3396C28.3785 16.3844 28.3245 16.4383 28.2715 16.4904L28.2426 16.5188C27.7436 17.0078 27.2446 17.4978 26.7642 17.9704L26.3798 18.3479C26.2876 18.3296 26.2001 18.3095 26.1144 18.2903C25.9022 18.2419 25.6992 18.1962 25.4981 18.1971C24.7608 18.2044 24.1147 18.7117 23.9267 19.432C23.7461 20.1249 24.0561 20.8699 24.6817 21.2456C24.9526 21.4083 25.2552 21.4878 25.5559 21.4878C25.9543 21.4878 26.3509 21.3471 26.6684 21.0728C27.2204 20.5957 27.3833 19.8269 27.0733 19.1605C27.0361 19.0792 27.0398 19.0563 27.1059 18.9933C27.5593 18.5554 28.0154 18.1066 28.4558 17.6724L28.749 17.3835C28.777 17.3561 28.8058 17.3287 28.8338 17.3013C28.9269 17.2108 29.0237 17.1184 29.1084 17.0151C29.2601 16.8305 29.2443 16.57 29.0712 16.3954C28.9064 16.229 28.6355 16.2062 28.4418 16.3414L28.4428 16.3396ZM25.5559 20.5207C25.3659 20.5207 25.1872 20.4476 25.055 20.315C24.9237 20.1843 24.8539 20.0125 24.8567 19.8306C24.8632 19.4567 25.1751 19.1523 25.5531 19.1514H25.554C25.7393 19.1514 25.9143 19.2236 26.0465 19.3543C26.1796 19.4869 26.2522 19.6615 26.2494 19.847C26.2448 20.2245 25.9403 20.5207 25.5568 20.5207H25.5559Z" fill="#88DB00"/>
</svg>
