<svg width="40" height="40" viewBox="0 0 40 40" fill="none" xmlns="http://www.w3.org/2000/svg">
<circle cx="20" cy="20" r="20" fill="#FFF8E7"/>
<path d="M25.5044 20.7623C25.0937 20.8311 24.7029 20.9534 24.2893 21.0833C24.1287 21.1339 23.9632 21.1855 23.7969 21.2342C23.7826 21.2036 23.7693 21.1721 23.7541 21.1396C23.6904 20.9963 23.6172 20.8339 23.5344 20.6782C23.4289 20.4795 23.3006 20.2474 23.1484 20.0363C22.9079 19.7029 22.6712 19.5405 22.4249 19.5386C22.1815 19.5348 21.941 19.6962 21.6966 20.0248C21.6814 20.0459 21.6662 20.0659 21.6529 20.0879C21.188 20.7948 20.8562 21.5733 20.6651 22.4034C20.5196 23.0368 20.6679 23.608 21.1062 24.1028C21.1281 24.1267 21.1404 24.2194 21.1224 24.2681C20.9027 24.8594 20.7791 25.4374 20.7459 26.0344C20.6527 27.6956 21.2945 29.3081 22.5076 30.4563C23.562 31.4545 24.9378 32 26.3601 32C26.574 32 26.7898 31.9876 27.0057 31.9627C28.6315 31.7736 30.0937 30.8852 31.016 29.5249C31.9382 28.1656 32.2272 26.4738 31.8079 24.8852C31.0749 22.1054 28.3063 20.2942 25.5044 20.7623ZM21.9685 24.6063C22.3926 24.7094 22.7871 24.6741 23.1703 24.4993C23.9975 24.1229 24.3863 23.268 24.16 22.3232C24.1249 22.179 24.1401 22.1446 24.2627 22.0825C25.5947 21.4033 27.1435 21.4147 28.5117 22.1149C29.8703 22.8094 30.784 24.0484 31.0188 25.5138C31.2308 26.8339 30.9285 28.1302 30.1688 29.1638C29.4092 30.1974 28.2645 30.869 26.9467 31.0533C24.4947 31.3972 22.094 29.608 21.708 27.1454C21.5683 26.2503 21.6529 25.4192 21.9685 24.6063ZM23.138 23.3883C22.9716 23.5956 22.7234 23.7198 22.4591 23.7284C22.1929 23.7341 21.9495 23.6415 21.7708 23.46C21.5958 23.2823 21.5055 23.0425 21.5169 22.7855C21.5388 22.2898 22.0503 21.0766 22.4316 20.5818C22.8927 21.2915 23.1808 21.9898 23.3129 22.7149C23.3566 22.9546 23.2939 23.1934 23.138 23.3883Z" fill="#FFDA7A"/>
<path d="M13.6523 8C13.6447 8 13.637 8 13.6285 8C12.1349 8 10.7258 8.58844 9.65717 9.65833C8.58757 10.7301 7.99905 12.1468 8 13.6475C8.00285 16.7741 10.5385 19.3189 13.6532 19.3199H13.6561C15.143 19.3199 16.5464 18.7324 17.6084 17.6644C18.677 16.5897 19.2655 15.1673 19.2636 13.658C19.2617 10.5515 16.7441 8.01242 13.6523 8ZM13.5971 8.91323C13.6095 8.91323 13.6218 8.91323 13.6342 8.91323C16.2564 8.93425 18.3756 11.0578 18.3585 13.6466C18.3414 16.3213 16.2535 18.4114 13.6028 18.4114H13.5886C12.3497 18.4076 11.1774 17.9089 10.2885 17.0072C9.38906 16.0949 8.89752 14.8932 8.90512 13.6246C8.91273 12.3636 9.41568 11.1753 10.3218 10.2783C11.2107 9.39755 12.3725 8.91323 13.5971 8.91323Z" fill="#FFDA7A"/>
<path d="M26.3696 19.3199H26.3744C27.869 19.3189 29.2808 18.7276 30.3476 17.6558C31.4153 16.584 32.0019 15.1683 32 13.6704C31.9981 12.1497 31.4077 10.7244 30.3381 9.65642C29.2713 8.59131 27.8547 8.00573 26.3458 8.00573C26.3373 8.00573 26.3287 8.00573 26.3202 8.00573C23.2312 8.01911 20.7259 10.5572 20.7345 13.6628C20.743 16.7827 23.2711 19.3199 26.3696 19.3199ZM26.3981 8.91323C27.6379 8.91323 28.8054 9.39946 29.6906 10.2859C30.5862 11.1829 31.0854 12.3808 31.0968 13.6609C31.1072 14.8979 30.6252 16.0767 29.7381 16.9814C28.8416 17.8965 27.656 18.4038 26.401 18.4124C25.1374 18.4229 23.9471 17.9309 23.0439 17.0339C22.1463 16.1427 21.6481 14.961 21.6415 13.7067C21.6272 11.0435 23.698 8.93807 26.3553 8.91419C26.3696 8.91419 26.3839 8.91323 26.3981 8.91323Z" fill="#FFB800"/>
<path d="M13.6332 20.6782H13.6304C12.1368 20.6782 10.7258 21.2667 9.65812 22.3366C8.58947 23.4065 8 24.8212 8 26.3191C8 29.4399 10.5328 31.9847 13.6475 31.9924H13.6599C15.144 31.9924 16.5445 31.4087 17.6027 30.3484C18.6723 29.2775 19.2617 27.8551 19.2636 26.342C19.2655 24.8317 18.6799 23.4103 17.616 22.3394C16.5521 21.2686 15.1373 20.6792 13.6332 20.6782ZM18.3566 26.3382C18.3281 29.0091 16.2535 31.0849 13.6237 31.0849C13.6076 31.0849 13.5914 31.0849 13.5752 31.0849C12.3212 31.0724 11.1423 30.5652 10.2561 29.6567C9.37004 28.7473 8.88991 27.5523 8.90417 26.2914C8.91843 25.0228 9.43089 23.8296 10.3465 22.9317C11.2326 22.0624 12.3811 21.5867 13.5867 21.5867C13.6066 21.5867 13.6256 21.5867 13.6456 21.5867C16.2716 21.6201 18.3842 23.7523 18.3566 26.3382Z" fill="#FFDA7A"/>
<path d="M24.0136 29.1934C24.0184 29.3511 24.1981 29.5192 24.3245 29.5708C24.4719 29.6309 24.6763 29.5412 24.7562 29.4991C25.2211 29.2603 25.6746 29.1304 26.1424 29.1027C26.8003 29.0635 27.4192 29.2001 27.9859 29.5096C28.0962 29.5698 28.2046 29.5994 28.3053 29.5994C28.37 29.5994 28.4308 29.587 28.4869 29.5622C28.6039 29.5096 28.6866 29.4046 28.7199 29.266C28.775 29.0358 28.679 28.8515 28.4347 28.7187C27.7881 28.3671 27.1026 28.1885 26.3962 28.1885C26.3734 28.1885 26.3515 28.1885 26.3287 28.1885C25.5862 28.1885 24.8912 28.3776 24.2637 28.7502C24.1258 28.8324 24.0089 29.0387 24.0136 29.1934Z" fill="#FFDA7A"/>
<path d="M23.5297 26.9113C23.5582 26.9151 23.5848 26.9161 23.6124 26.9161C23.6343 26.9161 23.6552 26.9161 23.6761 26.9142C23.6951 26.9142 23.7141 26.9132 23.7322 26.9132H23.736C24.3901 26.8893 24.9482 26.5779 25.4426 25.9618C25.5405 25.8395 25.5871 25.7 25.5729 25.5701C25.5605 25.4555 25.5035 25.3552 25.4084 25.2797C25.2021 25.1154 24.933 25.1632 24.74 25.3963C24.3654 25.8481 24.0155 26.0325 23.5687 26.0153C23.3262 26.0048 23.157 26.1691 23.1351 26.4327C23.1152 26.6754 23.2815 26.8769 23.5325 26.9113H23.5297Z" fill="#FFDA7A"/>
<path d="M28.8549 26.9142H28.8596C28.8768 26.9142 28.8939 26.9142 28.911 26.9142C29.2323 26.9142 29.5822 26.8559 29.5974 26.4805C29.6126 26.1156 29.3008 26.0325 29.0279 26.001C28.8131 25.9761 28.6086 25.9083 28.4527 25.8099C28.3196 25.7258 28.2074 25.6074 28.0876 25.4822C28.0372 25.4288 27.9859 25.3762 27.9346 25.3256C27.753 25.1498 27.4867 25.1336 27.3147 25.2874C27.1236 25.4593 27.0941 25.6876 27.2386 25.8854C27.7007 26.5149 28.2597 26.8712 28.8549 26.9142Z" fill="#FFDA7A"/>
<path d="M11.3219 16.0395C11.2621 16.1484 11.2468 16.2611 11.2773 16.3662C11.3134 16.4932 11.4161 16.606 11.573 16.6919C12.1985 17.0368 12.8936 17.2183 13.6389 17.2297H13.6418C14.3929 17.2154 15.0879 17.033 15.7068 16.6872C15.9835 16.5324 16.0757 16.2955 15.9531 16.0529C15.897 15.9401 15.8105 15.8628 15.7049 15.8284C15.5794 15.7882 15.4321 15.8093 15.2771 15.8905C14.1923 16.4588 13.0904 16.4608 12.0017 15.8962C11.7042 15.7424 11.457 15.794 11.3219 16.0395Z" fill="#FFDA7A"/>
<path d="M10.3027 13.147C10.4587 13.3667 10.7296 13.3972 10.9778 13.2205C11.1118 13.125 11.244 13.0266 11.3818 12.9234C11.4237 12.8919 11.4665 12.8604 11.5102 12.8279C11.5587 12.8642 11.6062 12.8995 11.6538 12.9349C11.8011 13.0457 11.9399 13.1498 12.0835 13.2501C12.1833 13.3199 12.2879 13.3542 12.3868 13.3542C12.5228 13.3542 12.6473 13.2893 12.7367 13.1641C12.8878 12.9511 12.8441 12.7028 12.6254 12.5318C12.382 12.3407 12.1291 12.1554 11.8848 11.9768L11.7878 11.9051C11.6043 11.7704 11.4066 11.7733 11.2164 11.9156C11.1204 11.9873 11.0244 12.058 10.9274 12.1296C10.7629 12.2509 10.5975 12.3722 10.4358 12.4974C10.2029 12.676 10.1506 12.932 10.3027 13.147Z" fill="#FFDA7A"/>
<path d="M15.2334 13.21C15.3655 13.1145 15.4967 13.017 15.6298 12.9177L15.7582 12.8222C15.801 12.8546 15.8447 12.8862 15.8875 12.9186C16.0215 13.0189 16.1594 13.1221 16.2982 13.2205C16.4047 13.296 16.514 13.3332 16.6186 13.3332C16.747 13.3332 16.8658 13.2759 16.9552 13.1632C17.0332 13.0648 17.0674 12.953 17.0531 12.8403C17.0379 12.7123 16.9618 12.5919 16.8335 12.4926C16.6956 12.3856 16.5559 12.2824 16.4161 12.1793C16.302 12.0943 16.187 12.0102 16.0738 11.9242C15.8647 11.7637 15.6508 11.7656 15.4397 11.9271C15.3161 12.0217 15.1915 12.1143 15.066 12.207C14.9434 12.2977 14.8207 12.3885 14.699 12.4811C14.4585 12.6655 14.4015 12.9339 14.5574 13.1479C14.7133 13.3628 14.9852 13.3877 15.2334 13.21Z" fill="#FFDA7A"/>
<path d="M27.9479 14.0449C28.0524 14.0707 28.1551 14.0831 28.255 14.0831C28.5925 14.0831 28.8967 13.936 29.1487 13.6494C29.3702 13.3982 29.4577 13.081 29.4348 12.6225C29.4348 12.611 29.4349 12.5977 29.4358 12.5814C29.4377 12.5279 29.4396 12.4544 29.4329 12.3799C29.3778 11.7465 28.9043 11.2765 28.2825 11.2374C27.6921 11.2011 27.153 11.6252 27.0551 12.206C27.0047 12.506 27.0047 12.8193 27.0551 13.1126C27.1378 13.5921 27.4554 13.9236 27.9479 14.0449ZM28.5383 12.7429C28.5383 12.7429 28.5383 12.7505 28.5383 12.7543C28.5335 12.8222 28.5288 12.8862 28.5126 12.9444C28.4708 13.0992 28.3643 13.1747 28.2055 13.1622C28.0467 13.1498 27.9517 13.0591 27.9326 12.8995C27.9174 12.7773 27.9222 12.6473 27.9269 12.5213V12.4888C27.9346 12.2958 28.0363 12.1793 28.2065 12.1688C28.215 12.1688 28.2226 12.1688 28.2312 12.1688C28.3995 12.1688 28.5117 12.2777 28.5326 12.4649C28.5373 12.506 28.5364 12.5509 28.5345 12.5977C28.5345 12.6206 28.5335 12.6445 28.5335 12.6674L28.5392 12.7457L28.5383 12.7429Z" fill="#FFB800"/>
<path d="M23.8244 13.8739C24.0269 14.0115 24.2627 14.0831 24.4985 14.0831C24.5869 14.0831 24.6744 14.0726 24.7609 14.0525C25.3875 13.9035 25.705 13.4383 25.705 12.6703V12.5986C25.705 12.5585 25.705 12.5184 25.705 12.4773C25.6908 11.8134 25.2049 11.2928 24.5755 11.267C23.8967 11.2402 23.3633 11.7074 23.3063 12.3818C23.2853 12.6311 23.291 12.8709 23.3243 13.0915C23.3719 13.4039 23.5535 13.6895 23.8244 13.8739ZM24.8009 12.7601C24.7942 12.9186 24.7552 13.0352 24.6887 13.1011C24.6411 13.1479 24.5784 13.1699 24.4976 13.168C24.4234 13.167 24.199 13.1622 24.1981 12.6989V12.6579C24.1981 12.5776 24.1971 12.5021 24.2076 12.4295C24.2323 12.2643 24.3416 12.1669 24.5014 12.1669C24.5071 12.1669 24.5118 12.1669 24.5175 12.1669C24.6811 12.1735 24.7866 12.2824 24.7999 12.4582C24.8028 12.5021 24.8028 12.547 24.8018 12.5948C24.8018 12.6177 24.8018 12.6407 24.8018 12.6636L24.8009 12.7601Z" fill="#FFB800"/>
<path d="M23.9946 16.2391C23.9899 16.3614 24.0288 16.4694 24.1077 16.5515C24.2047 16.6528 24.3549 16.7072 24.5413 16.7072C24.7932 16.7072 25.0461 16.7072 25.2981 16.7072C25.4759 16.7072 25.6537 16.7072 25.8324 16.7072H26.8944C27.3261 16.7072 27.7587 16.7072 28.1913 16.7072C28.5221 16.7072 28.7256 16.542 28.7351 16.2687C28.7389 16.1455 28.6999 16.0366 28.6219 15.9554C28.525 15.8551 28.3757 15.8016 28.1903 15.8016C26.9743 15.8007 25.7573 15.8007 24.5413 15.8016C24.2142 15.8016 24.0041 15.9697 23.9946 16.2391Z" fill="#FFB800"/>
<path d="M15.4444 27.0288C15.4635 27.0288 15.4825 27.0298 15.5015 27.0298C16.1214 27.0298 16.6272 26.5703 16.689 25.9398C16.7118 25.7048 16.7089 25.4736 16.6785 25.2539C16.6338 24.9225 16.4456 24.6244 16.1632 24.4362C15.8751 24.2442 15.5205 24.186 15.1906 24.2767C14.5945 24.4391 14.2931 24.8919 14.294 25.6217V25.6886C14.294 25.7383 14.2931 25.7889 14.294 25.8386C14.313 26.4986 14.797 26.9992 15.4444 27.0288ZM15.202 25.5338C15.1991 25.4784 15.1963 25.4249 15.2058 25.38C15.2362 25.2281 15.3256 25.1508 15.4777 25.1422C15.5547 25.1374 15.7373 25.147 15.7686 25.3304C15.8019 25.5243 15.8029 25.7325 15.7715 25.9322C15.7382 26.1433 15.5338 26.1414 15.4711 26.1356C15.3104 26.1204 15.2201 26.0315 15.202 25.871C15.1963 25.8223 15.1972 25.7707 15.1991 25.7172H15.2039V25.6217C15.2039 25.5931 15.2039 25.5634 15.202 25.5338Z" fill="#FFDA7A"/>
<path d="M11.7745 27.0307C12.3497 27.0307 12.8318 26.6381 12.9496 26.0669C12.9706 25.9637 12.9744 25.8596 12.9782 25.7593C12.9801 25.7153 12.981 25.6714 12.9839 25.6274L12.982 25.531H12.9753C12.9753 25.5042 12.9753 25.4784 12.9753 25.4517C12.9639 24.8126 12.4999 24.2929 11.8953 24.2433C11.225 24.1898 10.6735 24.6235 10.5832 25.2788C10.5509 25.5147 10.5528 25.7698 10.5889 26.0162C10.6754 26.6009 11.1518 27.0174 11.746 27.0298C11.7555 27.0298 11.765 27.0307 11.7745 27.0307ZM12.0721 25.5749C12.0721 25.6007 12.0711 25.6265 12.0711 25.6513C12.073 26.1376 11.8553 26.1404 11.7736 26.1414C11.6918 26.1414 11.6281 26.1194 11.5806 26.0716C11.5045 25.9962 11.4646 25.8529 11.4646 25.659V25.6055C11.4646 25.53 11.4636 25.4584 11.475 25.3925C11.5035 25.2367 11.6176 25.1403 11.7707 25.1403C11.7793 25.1403 11.7878 25.1403 11.7964 25.1403C11.9504 25.1508 12.0559 25.2597 12.0702 25.4221C12.075 25.4708 12.073 25.5214 12.0721 25.5749Z" fill="#FFDA7A"/>
<path d="M15.4577 27.9239C15.452 27.9258 15.4454 27.9268 15.4397 27.9296L12.5712 28.9097C12.4999 28.9346 12.4277 28.9575 12.3554 28.9804C12.2109 29.0272 12.0616 29.075 11.9171 29.1323C11.6832 29.225 11.5768 29.4409 11.6585 29.6567C11.6994 29.7647 11.7821 29.8459 11.8629 29.9242C11.8943 29.9548 11.9257 29.9854 11.9533 30.0169L12.0093 30.0809L12.1196 30.0045C12.1377 29.9997 12.1567 29.9949 12.1748 29.9892C12.229 29.9748 12.2832 29.9605 12.3355 29.9424C13.0314 29.7074 13.7264 29.4724 14.4224 29.2364L14.4804 29.2164C14.9025 29.0731 15.3237 28.9298 15.7439 28.7836C15.9407 28.7149 16.071 28.6165 16.1309 28.4913C16.1784 28.392 16.1813 28.2812 16.1394 28.1608C16.0491 27.9019 15.7953 27.8131 15.4577 27.9239Z" fill="#FFDA7A"/>
</svg>
